<?xml version="1.0" encoding="UTF-8" standalone="no"?>
<svg
   xmlns:dc="http://purl.org/dc/elements/1.1/"
   xmlns:cc="http://creativecommons.org/ns#"
   xmlns:rdf="http://www.w3.org/1999/02/22-rdf-syntax-ns#"
   xmlns:svg="http://www.w3.org/2000/svg"
   xmlns="http://www.w3.org/2000/svg"
   xmlns:xlink="http://www.w3.org/1999/xlink"
   xmlns:sodipodi="http://sodipodi.sourceforge.net/DTD/sodipodi-0.dtd"
   xmlns:inkscape="http://www.inkscape.org/namespaces/inkscape"
   inkscape:export-ydpi="96"
   inkscape:export-xdpi="96"
   inkscape:export-filename="/home/pegasis/Projects/FlutterProjects/yrdsb_teach_assist/ta/logo/logo-android.png"
   sodipodi:docname="logo-android.svg"
   inkscape:version="1.0 (4035a4fb49, 2020-05-01)"
   id="svg8"
   version="1.1"
   viewBox="0 0 270.93333 270.93334"
   height="1024"
   width="1024">
  <defs
     id="defs2">
    <linearGradient
       id="linearGradient18910"
       inkscape:collect="always">
      <stop
         id="stop18906"
         offset="0"
         style="stop-color:#000000;stop-opacity:0.1165391" />
      <stop
         id="stop18908"
         offset="1"
         style="stop-color:#000000;stop-opacity:0" />
    </linearGradient>
    <linearGradient
       gradientUnits="userSpaceOnUse"
       y2="967.29956"
       x2="998.83191"
       y1="455.93283"
       x1="487.46518"
       id="linearGradient18912"
       xlink:href="#linearGradient18910"
       inkscape:collect="always" />
  </defs>
  <sodipodi:namedview
     inkscape:window-maximized="1"
     inkscape:window-y="491"
     inkscape:window-x="2249"
     inkscape:window-height="1015"
     inkscape:window-width="1920"
     inkscape:pagecheckerboard="false"
     units="px"
     showgrid="false"
     inkscape:document-rotation="0"
     inkscape:current-layer="layer1"
     inkscape:document-units="mm"
     inkscape:cy="678.6233"
     inkscape:cx="643.93877"
     inkscape:zoom="0.5"
     inkscape:pageshadow="2"
     inkscape:pageopacity="0"
     borderopacity="1.0"
     bordercolor="#666666"
     pagecolor="#3ab1f3"
     id="base" />
  <metadata
     id="metadata5">
    <rdf:RDF>
      <cc:Work
         rdf:about="">
        <dc:format>image/svg+xml</dc:format>
        <dc:type
           rdf:resource="http://purl.org/dc/dcmitype/StillImage" />
        <dc:title></dc:title>
      </cc:Work>
    </rdf:RDF>
  </metadata>
  <g
     id="layer1"
     inkscape:groupmode="layer"
     inkscape:label="Layer 1">
    <path
       transform="scale(0.26458333)"
       d="M 512.00195 285.88867 L 235.64258 436.63086 L 235.65625 436.63867 L 235.65234 436.64062 L 235.66797 436.65039 L 235.66406 436.65234 L 235.67969 436.66211 L 235.67578 436.66406 L 235.69727 436.67578 L 235.69141 436.67969 L 235.7168 436.69336 L 235.71094 436.69727 L 235.74219 436.71484 L 235.73047 436.7207 L 235.76562 436.74023 L 235.75586 436.74414 L 235.79297 436.76367 L 235.7832 436.76953 L 235.82617 436.79297 L 235.8125 436.80078 L 235.85938 436.82617 L 235.8457 436.83398 L 235.89648 436.86133 L 235.88086 436.87109 L 235.93555 436.90039 L 235.91992 436.91016 L 235.97852 436.94141 L 235.96094 436.95117 L 236.02148 436.98438 L 236.00586 436.99219 L 236.07422 437.0293 L 236.05273 437.04102 L 236.12305 437.08008 L 236.10156 437.0918 L 236.17578 437.13281 L 236.1543 437.14453 L 236.23438 437.1875 L 236.21094 437.20117 L 236.29102 437.24414 L 236.26758 437.25781 L 236.35352 437.30469 L 236.33008 437.31836 L 236.42188 437.36914 L 236.39453 437.38281 L 236.48828 437.43359 L 236.46094 437.44922 L 236.55859 437.50195 L 236.53125 437.51758 L 236.63672 437.57617 L 236.60352 437.59375 L 236.71094 437.65234 L 236.67969 437.66992 L 236.78711 437.72852 L 236.75781 437.74414 L 236.875 437.80859 L 236.83789 437.82812 L 236.95703 437.89258 L 236.92188 437.91211 L 237.04492 437.97852 L 237.00977 437.99805 L 237.13672 438.06836 L 237.09961 438.08789 L 237.23047 438.1582 L 237.19141 438.17969 L 237.32812 438.25391 L 237.28711 438.27734 L 237.42773 438.35352 L 237.38477 438.37695 L 237.52539 438.45312 L 237.48633 438.47461 L 237.63477 438.55469 L 237.58984 438.58008 L 237.74023 438.66211 L 237.69727 438.68555 L 237.85156 438.76953 L 237.80664 438.79492 L 237.9668 438.88281 L 237.91992 438.9082 L 238.08203 438.99609 L 238.03516 439.02148 L 238.20508 439.11523 L 238.1543 439.14258 L 238.32422 439.23633 L 238.27344 439.26367 L 238.44727 439.35742 L 238.39844 439.38477 L 238.58008 439.48438 L 238.52539 439.51367 L 238.70703 439.61328 L 238.6543 439.64258 L 238.8418 439.74609 L 238.78711 439.77539 L 238.97852 439.87891 L 238.92188 439.91016 L 239.11914 440.01758 L 239.06055 440.05078 L 239.25781 440.1582 L 239.20117 440.18945 L 239.40625 440.30078 L 239.3457 440.33398 L 239.55273 440.44727 L 239.49219 440.48047 L 239.70703 440.59766 L 239.64258 440.63281 L 239.85742 440.75 L 239.79492 440.7832 L 240.01562 440.9043 L 239.94922 440.93945 L 240.17383 441.0625 L 240.10742 441.09766 L 240.33398 441.2207 L 240.26953 441.25586 L 240.50195 441.38281 L 240.43164 441.42188 L 240.66797 441.55078 L 240.59961 441.58789 L 240.83984 441.71875 L 240.76953 441.75781 L 241.01367 441.89062 L 240.94141 441.92969 L 241.19141 442.06641 L 241.11523 442.10742 L 241.36719 442.24414 L 241.29492 442.2832 L 241.55078 442.42383 L 241.47461 442.46484 L 241.73242 442.60547 L 241.6582 442.64648 L 241.92578 442.79297 L 241.8457 442.83594 L 242.11328 442.98242 L 242.03516 443.02539 L 242.30664 443.17383 L 242.22656 443.2168 L 242.50195 443.36719 L 242.42188 443.41016 L 242.70508 443.56445 L 242.62109 443.61133 L 242.9043 443.76562 L 242.82227 443.81055 L 243.11133 443.96875 L 243.02539 444.01562 L 243.31445 444.17383 L 243.23242 444.21875 L 243.53125 444.38281 L 243.44141 444.43164 L 243.74023 444.59375 L 243.65234 444.64258 L 243.95703 444.80859 L 243.86914 444.85742 L 244.17578 445.02539 L 244.08594 445.07422 L 244.40039 445.24609 L 244.30664 445.29688 L 244.62305 445.46875 L 244.53125 445.51953 L 244.85156 445.69531 L 244.75781 445.74609 L 245.08398 445.92383 L 244.98633 445.97656 L 245.31445 446.1543 L 245.21875 446.20703 L 245.55078 446.38867 L 245.45312 446.44141 L 245.79102 446.625 L 245.69141 446.67969 L 246.0332 446.86719 L 245.93164 446.92188 L 246.27539 447.10938 L 246.17578 447.16406 L 246.52539 447.35547 L 246.42188 447.41211 L 246.77539 447.60547 L 246.67188 447.66211 L 247.02734 447.85547 L 246.92383 447.91211 L 247.28711 448.10938 L 247.17969 448.16797 L 247.54492 448.36719 L 247.4375 448.42578 L 247.80664 448.62695 L 247.69727 448.6875 L 248.07031 448.89062 L 247.96094 448.95117 L 248.33594 449.15625 L 248.22656 449.21484 L 248.60742 449.42383 L 248.49609 449.48438 L 248.88086 449.69336 L 248.76758 449.75586 L 249.1582 449.96875 L 249.04297 450.03125 L 249.43945 450.24805 L 249.32227 450.3125 L 249.71875 450.52734 L 249.60156 450.5918 L 250.00195 450.81055 L 249.88477 450.875 L 250.29102 451.09766 L 250.17188 451.16211 L 250.58008 451.38477 L 250.46094 451.44922 L 250.87305 451.67383 L 250.75195 451.74023 L 251.16992 451.96875 L 251.04883 452.03516 L 251.4707 452.26562 L 251.3457 452.33398 L 251.77344 452.56836 L 251.64648 452.63672 L 252.07617 452.87109 L 251.94922 452.93945 L 252.38281 453.17578 L 252.25586 453.24414 L 252.69531 453.48438 L 252.56445 453.55469 L 253.00586 453.79492 L 252.87695 453.86523 L 253.32422 454.10938 L 253.19141 454.18164 L 253.64258 454.42773 L 253.50977 454.5 L 253.96094 454.74609 L 253.83008 454.81641 L 254.29102 455.06836 L 254.15234 455.14258 L 254.61328 455.39453 L 254.47852 455.4668 L 254.94531 455.72266 L 254.80859 455.79688 L 255.2793 456.05273 L 255.14062 456.12891 L 255.61523 456.38867 L 255.47461 456.46484 L 255.95117 456.72461 L 255.8125 456.80078 L 256.29492 457.06445 L 256.1543 457.14062 L 256.64258 457.40625 L 256.49609 457.48633 L 256.98828 457.75391 L 256.8418 457.83398 L 257.33594 458.10352 L 257.19141 458.18164 L 257.68945 458.45312 L 257.54297 458.5332 L 258.04492 458.80664 L 257.89844 458.88672 L 258.40234 459.16211 L 258.25586 459.24219 L 258.76758 459.52148 L 258.61523 459.60547 L 259.13086 459.88672 L 258.97852 459.96875 L 259.49805 460.25195 L 259.3457 460.33594 L 259.86523 460.61914 L 259.71484 460.70117 L 260.24414 460.99023 L 260.08594 461.07617 L 260.61523 461.36523 L 260.46094 461.44922 L 260.99609 461.74219 L 260.83789 461.82812 L 261.37305 462.12109 L 261.21875 462.20508 L 261.76367 462.50195 L 261.60156 462.5918 L 262.14844 462.88867 L 261.98828 462.97656 L 262.54102 463.27734 L 262.37695 463.36719 L 262.92969 463.66797 L 262.76953 463.75586 L 263.33008 464.0625 L 263.16406 464.15234 L 263.72656 464.45898 L 263.56055 464.54883 L 264.12695 464.85742 L 263.96094 464.94922 L 264.5332 465.26172 L 264.36328 465.35352 L 264.9375 465.66602 L 264.76953 465.75781 L 265.34961 466.07422 L 265.17969 466.16602 L 265.76172 466.48438 L 265.58984 466.57812 L 266.17969 466.90039 L 266.00586 466.99414 L 266.5957 467.31641 L 266.42188 467.41016 L 267.01758 467.73438 L 266.8418 467.83008 L 267.44141 468.1582 L 267.26562 468.25391 L 267.86914 468.58203 L 267.69141 468.67969 L 268.29883 469.01172 L 268.12109 469.10742 L 268.73633 469.44336 L 268.55273 469.54297 L 269.16797 469.87891 L 268.98633 469.97656 L 269.60352 470.31445 L 269.42383 470.41211 L 270.04883 470.75195 L 269.86328 470.85352 L 270.49023 471.19531 L 270.30664 471.29492 L 270.93945 471.64062 L 270.75195 471.74219 L 271.38867 472.08984 L 271.20117 472.19141 L 271.83789 472.53906 L 271.65234 472.64062 L 272.29688 472.99219 L 272.10742 473.0957 L 272.75586 473.44922 L 272.56445 473.55273 L 273.2168 473.9082 L 273.02539 474.01367 L 273.68359 474.37305 L 273.48828 474.47852 L 274.14648 474.83789 L 273.95312 474.94336 L 274.61719 475.30469 L 274.42188 475.41211 L 275.0918 475.77734 L 274.89453 475.88477 L 275.56445 476.25 L 275.36719 476.35742 L 276.04102 476.72461 L 275.8457 476.83203 L 276.52539 477.20312 L 276.32617 477.3125 L 277.01172 477.68555 L 276.80859 477.79688 L 277.49805 478.17188 L 277.29492 478.2832 L 277.98633 478.66016 L 277.7832 478.77148 L 278.47852 479.15039 L 278.27344 479.26367 L 278.97266 479.64453 L 278.76758 479.75781 L 279.4707 480.14258 L 279.26562 480.25391 L 279.97656 480.64062 L 279.76562 480.75586 L 280.47852 481.14453 L 280.26953 481.25781 L 280.98438 481.64648 L 280.77344 481.76172 L 281.49609 482.15625 L 281.2832 482.27148 L 282.00586 482.66602 L 281.79492 482.78125 L 282.52344 483.17773 L 282.30859 483.29492 L 283.04297 483.69531 L 282.82617 483.81445 L 283.56445 484.2168 L 283.3457 484.33594 L 284.08594 484.74023 L 283.86914 484.85742 L 284.61328 485.26367 L 284.39453 485.38281 L 285.14258 485.79102 L 284.92188 485.91211 L 285.67383 486.32227 L 285.45312 486.44336 L 286.20898 486.85547 L 285.98828 486.97656 L 286.75 487.39258 L 286.52539 487.51367 L 287.29102 487.93164 L 287.06445 488.05469 L 287.83008 488.47266 L 287.60742 488.59375 L 288.38281 489.01758 L 288.15234 489.14258 L 288.92969 489.56641 L 288.70117 489.69141 L 289.48242 490.11719 L 289.25195 490.24219 L 290.03516 490.66992 L 289.80664 490.79492 L 290.59766 491.22656 L 290.36328 491.35352 L 291.15625 491.78516 L 290.92383 491.91211 L 291.72266 492.34766 L 291.48633 492.47656 L 292.28516 492.91211 L 292.05273 493.03906 L 292.85938 493.47852 L 292.62109 493.60938 L 293.43164 494.05078 L 293.19141 494.18164 L 294.00586 494.625 L 293.76562 494.75586 L 294.58008 495.19922 L 294.3418 495.33008 L 295.16602 495.7793 L 294.92188 495.91211 L 295.74805 496.36328 L 295.50586 496.49414 L 296.33398 496.94727 L 296.08984 497.08008 L 296.92383 497.53516 L 296.67773 497.66992 L 297.51367 498.12695 L 297.26953 498.25977 L 298.10938 498.7168 L 297.86328 498.85156 L 298.70898 499.3125 L 298.46094 499.44922 L 299.3125 499.91406 L 299.06055 500.05078 L 299.91211 500.51562 L 299.66406 500.65039 L 300.52148 501.11719 L 300.26758 501.25586 L 301.13086 501.72656 L 300.87695 501.86523 L 301.74219 502.33789 L 301.48828 502.47656 L 302.35742 502.95117 L 302.10156 503.08984 L 302.97852 503.56836 L 302.71875 503.70898 L 303.5957 504.1875 L 303.33789 504.32812 L 304.21875 504.80859 L 303.96094 504.94922 L 304.84766 505.43359 L 304.58594 505.57617 L 305.47461 506.06055 L 305.21484 506.20312 L 306.10938 506.69141 L 305.8457 506.83398 L 306.74414 507.32422 L 306.47852 507.46875 L 307.38086 507.96094 L 307.11523 508.10547 L 308.02148 508.59961 L 307.75586 508.74414 L 308.66602 509.24023 L 308.39844 509.38672 L 309.31055 509.88477 L 309.04297 510.03125 L 309.96289 510.5332 L 309.69141 510.68164 L 310.61328 511.18359 L 310.3418 511.33203 L 311.26953 511.83789 L 310.99609 511.98633 L 311.92383 512.49219 L 311.65234 512.64062 L 312.58789 513.15039 L 312.3125 513.30078 L 313.25 513.8125 L 312.97461 513.96289 L 313.91797 514.47852 L 313.64062 514.62891 L 314.58594 515.14453 L 314.30859 515.29688 L 315.26172 515.81641 L 314.97852 515.9707 L 315.93164 516.49023 L 315.65234 516.64258 L 316.61133 517.16602 L 316.33008 517.31836 L 317.29492 517.84375 L 317.00977 518 L 317.97461 518.52539 L 317.69141 518.67969 L 318.66016 519.20898 L 318.37695 519.36328 L 319.35156 519.89453 L 319.06445 520.05078 L 320.04492 520.58594 L 319.75586 520.74414 L 320.74023 521.28125 L 320.44922 521.43945 L 321.43555 521.97656 L 321.14648 522.13477 L 322.13672 522.67578 L 321.8457 522.83398 L 322.83984 523.37695 L 322.54688 523.53711 L 323.54492 524.08203 L 323.25195 524.24219 L 324.25391 524.78906 L 323.96094 524.94922 L 324.96875 525.49805 L 324.67188 525.66016 L 325.68359 526.21289 L 325.38477 526.375 L 326.39844 526.92773 L 326.10156 527.08984 L 327.12109 527.64648 L 326.82031 527.81055 L 327.84375 528.36914 L 327.54297 528.5332 L 328.57031 529.09375 L 328.26953 529.25781 L 329.29883 529.81836 L 328.99609 529.98438 L 330.0332 530.55078 L 329.72656 530.7168 L 330.76758 531.28516 L 330.46094 531.45117 L 331.50391 532.01953 L 331.19727 532.1875 L 332.24219 532.75781 L 331.9375 532.92383 L 332.99219 533.49805 L 332.67773 533.66992 L 333.73242 534.24609 L 333.42383 534.41406 L 334.48438 534.99219 L 334.17188 535.16211 L 335.23242 535.74023 L 334.92188 535.91016 L 335.99219 536.49414 L 335.67578 536.66602 L 336.74609 537.25 L 336.43164 537.42188 L 337.50781 538.00977 L 337.19141 538.18164 L 338.26953 538.76953 L 337.95312 538.94141 L 339.03906 539.5332 L 338.71875 539.70898 L 339.80664 540.30273 L 339.48633 540.47656 L 340.58008 541.07227 L 340.25781 541.24805 L 341.34961 541.84375 L 341.03125 542.01758 L 342.13281 542.61914 L 341.80664 542.79688 L 342.91016 543.39844 L 342.58594 543.57617 L 343.69336 544.17969 L 343.36914 544.35742 L 344.47852 544.96289 L 344.15234 545.14062 L 345.26953 545.75 L 344.94141 545.92969 L 346.0625 546.54102 L 345.73242 546.7207 L 346.85547 547.33398 L 346.70508 547.41602 L 336.13672 541.64844 L 336.13672 642.14258 L 336.14062 642.14453 L 336.14062 642.14648 L 336.14844 642.15039 L 336.14844 642.15234 L 336.1582 642.1582 L 336.1582 642.16406 L 336.16992 642.16992 L 336.16992 642.17578 L 336.18555 642.18359 L 336.18555 642.19141 L 336.20508 642.20117 L 336.20508 642.20898 L 336.22656 642.2207 L 336.22656 642.23242 L 336.25 642.24609 L 336.25 642.25586 L 336.27734 642.27148 L 336.27734 642.28125 L 336.30664 642.29688 L 336.30664 642.3125 L 336.33984 642.33008 L 336.33984 642.3457 L 336.375 642.36523 L 336.375 642.37891 L 336.41406 642.40039 L 336.41406 642.41797 L 336.45508 642.43945 L 336.45508 642.45898 L 336.5 642.48438 L 336.5 642.50391 L 336.54688 642.5293 L 336.54688 642.55273 L 336.5957 642.58008 L 336.5957 642.60352 L 336.64844 642.63281 L 336.64844 642.65625 L 336.70508 642.6875 L 336.70508 642.70898 L 336.76367 642.74023 L 336.76367 642.76953 L 336.82422 642.80273 L 336.82422 642.83008 L 336.88867 642.86523 L 336.88867 642.89453 L 336.95508 642.93164 L 336.95508 642.96094 L 337.02539 643 L 337.02539 643.0293 L 337.09766 643.06836 L 337.09766 643.10156 L 337.17383 643.14258 L 337.17383 643.17773 L 337.25195 643.2207 L 337.25195 643.25586 L 337.33203 643.29883 L 337.33203 643.33984 L 337.41602 643.38477 L 337.41602 643.42383 L 337.50391 643.47266 L 337.50391 643.50977 L 337.59375 643.55859 L 337.59375 643.60156 L 337.68555 643.65234 L 337.68555 643.69141 L 337.78125 643.74414 L 337.78125 643.78516 L 337.88086 643.83984 L 337.88086 643.88477 L 337.98047 643.93945 L 337.98047 643.98633 L 338.08398 644.04297 L 338.08398 644.0918 L 338.19141 644.15039 L 338.19141 644.19727 L 338.30078 644.25781 L 338.30078 644.30664 L 338.41406 644.36914 L 338.41406 644.41992 L 338.5293 644.48242 L 338.5293 644.5332 L 338.64844 644.59766 L 338.64844 644.65039 L 338.76953 644.7168 L 338.76953 644.77148 L 338.89258 644.83789 L 338.89258 644.89648 L 339.01953 644.96484 L 339.01953 645.02539 L 339.14844 645.0957 L 339.14844 645.1543 L 339.28125 645.22656 L 339.28125 645.28711 L 339.41602 645.36133 L 339.41602 645.42188 L 339.55469 645.49805 L 339.55469 645.5625 L 339.69531 645.63867 L 339.69531 645.70117 L 339.83984 645.7793 L 339.83984 645.8457 L 339.98633 645.92578 L 339.98633 645.99219 L 340.13672 646.07422 L 340.13672 646.14062 L 340.28906 646.22461 L 340.28906 646.29492 L 340.44336 646.37891 L 340.44336 646.45117 L 340.60156 646.53711 L 340.60156 646.60938 L 340.76367 646.69727 L 340.76367 646.76758 L 340.92773 646.85742 L 340.92773 646.92969 L 341.09375 647.01953 L 341.09375 647.09961 L 341.26367 647.19141 L 341.26367 647.26758 L 341.43555 647.36133 L 341.43555 647.44141 L 341.61133 647.53711 L 341.61133 647.61523 L 341.78906 647.71289 L 341.78906 647.79688 L 341.96875 647.89453 L 341.96875 647.97266 L 342.1543 648.07422 L 342.1543 648.1582 L 342.33984 648.25977 L 342.33984 648.34375 L 342.5293 648.44727 L 342.5293 648.53711 L 342.7207 648.64062 L 342.7207 648.72656 L 342.91602 648.83398 L 342.91602 648.92188 L 343.11523 649.03125 L 343.11523 649.11914 L 343.31641 649.22852 L 343.31641 649.32227 L 343.51953 649.43359 L 343.51953 649.52344 L 343.72656 649.63672 L 343.72656 649.73047 L 343.93555 649.84375 L 343.93555 649.94336 L 344.14844 650.05859 L 344.14844 650.1543 L 344.36328 650.27148 L 344.36328 650.36914 L 344.58008 650.48828 L 344.58008 650.58594 L 344.80078 650.70703 L 344.80078 650.80859 L 345.02539 650.93164 L 345.02539 651.03125 L 345.25195 651.1543 L 345.25195 651.25781 L 345.48047 651.38281 L 345.48047 651.48438 L 345.71289 651.61133 L 345.71289 651.71875 L 345.94727 651.8457 L 345.94727 651.95312 L 346.18555 652.08398 L 346.18555 652.19141 L 346.42773 652.32422 L 346.42773 652.43359 L 346.66992 652.56641 L 346.66992 652.67578 L 346.91602 652.81055 L 346.91602 652.92188 L 347.16602 653.05859 L 347.16602 653.16992 L 347.41797 653.30664 L 347.41797 653.42383 L 347.67383 653.5625 L 347.67383 653.67773 L 347.93164 653.81836 L 347.93164 653.9375 L 348.19141 654.08008 L 348.19141 654.19922 L 348.45508 654.34375 L 348.45508 654.45898 L 348.7207 654.60352 L 348.7207 654.72852 L 348.99023 654.875 L 348.99023 654.99609 L 349.26367 655.14453 L 349.26367 655.26758 L 349.53711 655.41602 L 349.53711 655.54297 L 349.81641 655.69531 L 349.81641 655.82031 L 350.0957 655.97266 L 350.0957 656.10352 L 350.38086 656.25977 L 350.38086 656.38672 L 350.66602 656.54297 L 350.66602 656.66992 L 350.95508 656.82812 L 350.95508 656.96094 L 351.24805 657.12109 L 351.24805 657.25195 L 351.54297 657.41211 L 351.54297 657.54688 L 351.83984 657.70898 L 351.83984 657.8457 L 352.14062 658.00977 L 352.14062 658.14453 L 352.44336 658.31055 L 352.44336 658.45117 L 352.75 658.61914 L 352.75 658.75586 L 353.05859 658.92383 L 353.05859 659.06641 L 353.37109 659.23633 L 353.37109 659.37695 L 353.68555 659.54883 L 353.68555 659.68945 L 354.00391 659.86328 L 354.00391 660.00781 L 354.32422 660.18164 L 354.32422 660.32812 L 354.64648 660.50391 L 354.64648 660.6543 L 354.97266 660.83203 L 354.97266 660.97852 L 355.30273 661.1582 L 355.30273 661.30859 L 355.63477 661.49023 L 355.63477 661.64062 L 355.96875 661.82227 L 355.96875 661.97656 L 356.30664 662.16016 L 356.30664 662.3125 L 356.64844 662.5 L 356.64844 662.65234 L 356.99023 662.83984 L 356.99023 662.99805 L 357.33789 663.1875 L 357.33789 663.3418 L 357.68555 663.53125 L 357.68555 663.69336 L 358.03711 663.88477 L 358.03711 664.04492 L 358.39258 664.23828 L 358.39258 664.39844 L 358.75 664.59375 L 358.75 664.75391 L 359.11133 664.95117 L 359.11133 665.11719 L 359.47461 665.31641 L 359.47461 665.48047 L 359.83984 665.67969 L 359.83984 665.84766 L 360.20898 666.04883 L 360.20898 666.21289 L 360.58008 666.41602 L 360.58008 666.58789 L 360.95508 666.79297 L 360.95508 666.96094 L 361.33203 667.16602 L 361.33203 667.33984 L 361.71289 667.54688 L 361.71289 667.71875 L 362.0957 667.92773 L 362.0957 668.10352 L 362.48242 668.31445 L 362.48242 668.48828 L 362.87109 668.70117 L 362.87109 668.87891 L 363.26367 669.09375 L 363.26367 669.26758 L 363.6582 669.48242 L 363.6582 669.66406 L 364.05469 669.88086 L 364.05469 670.06055 L 364.45508 670.2793 L 364.45508 670.46094 L 364.85742 670.67969 L 364.85742 670.86328 L 365.26367 671.08594 L 365.26367 671.27148 L 365.67383 671.49609 L 365.67383 671.67969 L 366.08594 671.9043 L 366.08594 672.08984 L 366.5 672.31641 L 366.5 672.50586 L 366.91602 672.73242 L 366.91602 672.92188 L 367.33789 673.15234 L 367.33789 673.3418 L 367.75977 673.57227 L 367.75977 673.76562 L 368.18555 673.99805 L 368.18555 674.19141 L 368.61523 674.42578 L 368.61523 674.61914 L 369.04688 674.85547 L 369.04688 675.05078 L 369.48047 675.28711 L 369.48047 675.48438 L 369.91797 675.72266 L 369.91797 675.92383 L 370.35938 676.16406 L 370.35938 676.36523 L 370.80078 676.60547 L 370.80078 676.80664 L 371.24805 677.05078 L 371.24805 677.25391 L 371.69531 677.49805 L 371.69531 677.70312 L 372.14648 677.94922 L 372.14648 678.15234 L 372.60156 678.40039 L 372.60156 678.60742 L 373.05859 678.85742 L 373.05859 679.06445 L 373.51953 679.31641 L 373.51953 679.52539 L 373.98242 679.77734 L 373.98242 679.98633 L 374.44727 680.24023 L 374.44727 680.45508 L 374.91602 680.71094 L 374.91602 680.92383 L 375.38867 681.18164 L 375.38867 681.39258 L 375.86328 681.65234 L 375.86328 681.86914 L 376.33984 682.12891 L 376.33984 682.34375 L 376.82031 682.60547 L 376.82031 682.82422 L 377.30273 683.08789 L 377.30273 683.30859 L 377.78906 683.57422 L 377.78906 683.79688 L 378.27734 684.0625 L 378.27734 684.2832 L 378.76953 684.55273 L 378.76953 684.77539 L 379.26367 685.04492 L 379.26367 685.26953 L 379.75977 685.54102 L 379.75977 685.76562 L 380.25781 686.03711 L 380.25781 686.26367 L 380.76562 686.54102 L 380.76562 686.76758 L 381.26758 687.04102 L 381.26758 687.27344 L 381.77734 687.55078 L 381.77734 687.7832 L 382.28711 688.06055 L 382.28711 688.29297 L 382.80273 688.57422 L 382.80273 688.80664 L 383.32031 689.08984 L 383.32031 689.32617 L 383.8418 689.61133 L 383.8418 689.84766 L 384.36328 690.13281 L 384.36328 690.36914 L 384.88867 690.65625 L 384.88867 690.89453 L 385.41797 691.18359 L 385.41797 691.42383 L 385.94727 691.71289 L 385.94727 691.95117 L 386.48242 692.24414 L 386.48242 692.48828 L 387.01953 692.78125 L 387.01953 693.02539 L 387.56055 693.32031 L 387.56055 693.56641 L 388.10156 693.86133 L 388.10156 694.10742 L 388.64844 694.40625 L 388.64844 694.6543 L 389.19727 694.95312 L 389.19727 695.20312 L 389.74805 695.50391 L 389.74805 695.75391 L 390.30078 696.05469 L 390.30078 696.30664 L 390.85938 696.61133 L 390.85938 696.86523 L 391.41992 697.17188 L 391.41992 697.42578 L 391.98242 697.73242 L 391.98242 697.98828 L 392.54492 698.29492 L 392.54492 698.55078 L 393.11719 698.86328 L 393.11719 699.12109 L 393.6875 699.43164 L 393.6875 699.69336 L 394.26172 700.00586 L 394.26172 700.26758 L 394.83594 700.58008 L 394.83594 700.8418 L 395.41797 701.16016 L 395.41797 701.42383 L 396 701.74219 L 396 702.00586 L 396.58594 702.32617 L 396.58594 702.5918 L 397.17188 702.91211 L 397.17188 703.17773 L 397.76562 703.50195 L 397.76562 703.77148 L 398.35938 704.0957 L 398.35938 704.36328 L 398.95508 704.6875 L 398.95508 704.96094 L 399.55664 705.28906 L 399.55664 705.5625 L 400.1582 705.89062 L 400.1582 706.16406 L 400.76172 706.49414 L 400.76172 706.76758 L 401.37109 707.09961 L 401.37109 707.37695 L 401.98242 707.71094 L 401.98242 707.98828 L 402.5957 708.32227 L 402.5957 708.60156 L 403.21094 708.9375 L 403.21094 709.2168 L 403.83203 709.55664 L 403.83203 709.83594 L 404.45508 710.17578 L 404.45508 710.46094 L 405.08203 710.80273 L 405.08203 711.08789 L 405.70898 711.42969 L 405.70898 711.71484 L 406.33984 712.05859 L 406.33984 712.3457 L 406.97266 712.69141 L 406.97266 712.97852 L 407.61133 713.32617 L 407.61133 713.61719 L 408.25 713.96484 L 408.25 714.25586 L 408.89258 714.60742 L 408.89258 714.89844 L 409.53906 715.25195 L 409.53906 715.54297 L 410.18359 715.89453 L 410.18359 716.18945 L 410.83789 716.54688 L 410.83789 716.84375 L 411.49219 717.20117 L 411.49219 717.49805 L 412.14648 717.85547 L 412.14648 718.15234 L 412.80664 718.51172 L 412.80664 718.8125 L 413.46875 719.17383 L 413.46875 719.47461 L 414.13477 719.83789 L 414.13477 720.14062 L 414.80273 720.50586 L 414.80273 720.80859 L 415.47266 721.17383 L 415.47266 721.47852 L 416.14844 721.84766 L 416.14844 722.1543 L 416.82617 722.52344 L 416.82617 722.83008 L 417.50195 723.19922 L 417.50195 723.50781 L 418.18555 723.88086 L 418.18555 724.19141 L 418.86914 724.56445 L 418.86914 724.875 L 419.55859 725.25195 L 419.55859 725.5625 L 420.25 725.93945 L 420.25 726.25586 L 420.94531 726.63477 L 420.94531 726.95117 L 421.64062 727.33008 L 421.64062 727.64648 L 422.33984 728.02734 L 422.33984 728.3457 L 423.04297 728.72852 L 423.04297 729.04883 L 423.74609 729.43164 L 423.74609 729.75195 L 424.45703 730.14062 L 424.45703 730.46094 L 425.16602 730.84766 L 425.16602 731.17188 L 425.88086 731.5625 L 425.88086 731.88672 L 426.5957 732.27734 L 426.5957 732.60156 L 427.31641 732.99414 L 427.31641 733.32227 L 428.03906 733.7168 L 428.03906 734.04492 L 428.76172 734.43945 L 428.76172 734.76758 L 429.49023 735.16602 L 429.49023 735.49609 L 430.2207 735.89453 L 430.2207 736.22461 L 430.95703 736.62695 L 430.95703 736.95898 L 431.68945 737.35938 L 431.68945 737.69531 L 432.43164 738.09961 L 432.43164 738.4375 L 433.17188 738.8418 L 433.17188 739.17773 L 433.91602 739.58398 L 433.91602 739.92188 L 434.66406 740.33008 L 434.66406 740.66992 L 435.41602 741.08008 L 435.41602 741.42188 L 436.16797 741.83203 L 436.16797 742.17383 L 436.92773 742.58789 L 436.92773 742.92969 L 437.68359 743.3418 L 437.68359 743.68945 L 438.44727 744.10547 L 438.44727 744.45312 L 439.21094 744.86914 L 439.21094 745.2168 L 439.98242 745.63867 L 439.98242 745.98828 L 440.75 746.40625 L 440.75 746.75586 L 441.52344 747.17773 L 441.52344 747.5293 L 442.30273 747.95508 L 442.30273 748.30469 L 443.08203 748.73047 L 443.08203 749.08789 L 443.86328 749.51367 L 443.86328 749.86914 L 444.64648 750.29688 L 444.64648 750.65234 L 445.43555 751.08203 L 445.43555 751.44141 L 446.22656 751.87305 L 446.22656 752.23242 L 447.01953 752.66602 L 447.01953 753.02539 L 447.81641 753.46094 L 447.81641 753.81836 L 448.61523 754.25391 L 448.61523 754.62109 L 449.41602 755.05859 L 449.41602 755.42188 L 450.2207 755.86133 L 450.2207 756.22656 L 451.0293 756.66797 L 451.0293 757.03516 L 451.83789 757.47656 L 451.83789 757.84375 L 452.65039 758.28711 L 452.65039 758.65625 L 453.4668 759.10156 L 453.4668 759.47266 L 454.28711 759.91992 L 454.28711 760.29297 L 455.11133 760.74219 L 455.11133 761.11719 L 455.93555 761.56641 L 455.93555 761.94141 L 456.76367 762.39258 L 456.76367 762.76953 L 457.5957 763.22266 L 457.5957 763.59766 L 458.42578 764.05078 L 458.42578 764.43164 L 459.26172 764.88867 L 459.26172 765.26758 L 460.10156 765.72656 L 460.10156 766.10742 L 460.94336 766.56641 L 460.94336 766.94922 L 461.79102 767.41211 L 461.79102 767.79297 L 462.63672 768.25391 L 462.63672 768.64258 L 463.48633 769.10547 L 463.48633 769.49219 L 464.3418 769.95898 L 464.3418 770.34375 L 465.19531 770.80859 L 465.19531 771.20117 L 466.05273 771.66992 L 466.05273 772.05859 L 466.91602 772.5293 L 466.91602 772.92188 L 467.78125 773.39453 L 467.78125 773.78711 L 468.65039 774.26172 L 468.65039 774.65625 L 469.51953 775.13086 L 469.51953 775.52539 L 470.39258 776.00195 L 470.39258 776.39844 L 471.26953 776.87695 L 471.26953 777.27539 L 472.14648 777.75391 L 472.14648 778.15234 L 473.03125 778.63477 L 473.03125 779.03711 L 473.91406 779.51953 L 473.91406 779.91992 L 474.79883 780.40234 L 474.79883 780.80469 L 475.69141 781.29102 L 475.69141 781.69727 L 476.58398 782.18359 L 476.58398 782.58984 L 477.47852 783.07812 L 477.47852 783.48438 L 478.37891 783.97656 L 478.37891 784.38477 L 479.28125 784.87695 L 479.28125 785.28711 L 480.18555 785.78125 L 480.18555 786.19141 L 481.0918 786.68555 L 481.0918 787.09766 L 482.00391 787.5957 L 482.00391 788.00977 L 482.91797 788.50781 L 482.91797 788.92383 L 483.83203 789.42188 L 483.83203 789.83789 L 484.75 790.33789 L 484.75 790.75586 L 485.67383 791.25977 L 485.67383 791.67969 L 486.59961 792.18555 L 486.59961 792.60547 L 487.52539 793.11133 L 487.52539 793.53125 L 488.45508 794.03906 L 488.45508 794.46094 L 489.38867 794.9707 L 489.38867 795.39453 L 490.32617 795.90625 L 490.32617 796.32812 L 491.26367 796.83984 L 491.26367 797.26953 L 492.20312 797.78125 L 492.20312 798.20898 L 493.14844 798.72461 L 493.14844 799.1543 L 494.09766 799.67188 L 494.09766 800.10352 L 495.04688 800.62109 L 495.04688 801.05273 L 495.99805 801.57227 L 495.99805 802.00391 L 496.95508 802.52539 L 496.95508 802.96094 L 497.91406 803.48438 L 497.91406 803.91992 L 498.875 804.44336 L 498.875 804.88086 L 499.83789 805.40625 L 499.83789 805.84375 L 500.80664 806.37305 L 500.80664 806.8125 L 501.77734 807.3418 L 501.77734 807.7832 L 502.74805 808.3125 L 502.74805 808.75391 L 503.72461 809.28711 L 503.72461 809.73047 L 504.70312 810.26367 L 504.70312 810.70898 L 505.68555 811.24414 L 505.68555 811.69141 L 506.66797 812.22656 L 506.66797 812.67383 L 507.6582 813.21484 L 507.6582 813.66406 L 508.64844 814.20508 L 508.64844 814.6543 L 509.63867 815.19531 L 509.63867 815.64453 L 510.63672 816.18945 L 510.63672 816.64258 L 511.63477 817.1875 L 511.63477 817.64062 L 512.63672 818.1875 L 512.63672 818.64258 L 513.64062 819.18945 L 513.64062 819.64648 L 514.64648 820.19531 L 514.64648 820.65234 L 515.65625 821.20312 L 515.65625 821.66211 L 516.66992 822.21484 L 516.66992 822.67383 L 517.68555 823.22852 L 517.68555 823.69141 L 518.70312 824.24609 L 518.70312 824.70898 L 519.72656 825.26758 L 519.72656 825.73242 L 520.75 826.29102 L 520.75 826.75586 L 521.77539 827.31445 L 521.77539 827.78125 L 522.80664 828.34375 L 522.80664 828.8125 L 523.83789 829.375 L 523.83789 829.84375 L 524.875 830.41016 L 524.875 830.88086 L 525.91406 831.44727 L 525.91406 831.91992 L 526.95312 832.48633 L 526.95312 832.95898 L 528 833.53125 L 528 834.00586 L 529.04688 834.57617 L 529.04688 835.05273 L 530.09766 835.62695 L 530.09766 836.09961 L 531.14844 836.67383 L 531.14844 837.1543 L 532.20312 837.73047 L 532.20312 838.20898 L 533.26172 838.78711 L 533.26172 839.26758 L 534.32227 839.8457 L 534.32227 840.32812 L 535.38867 840.91016 L 535.38867 841.39453 L 536.45508 841.97656 L 536.45508 842.46094 L 537.52344 843.04492 L 537.52344 843.5293 L 538.59766 844.11523 L 538.59766 844.60352 L 539.67188 845.18945 L 539.67188 845.67773 L 540.75195 846.26758 L 540.75195 846.75781 L 541.83398 847.34766 L 541.83398 847.83789 L 542.91797 848.42969 L 542.91797 848.92383 L 544.00195 849.51562 L 544.00195 850.00781 L 545.0957 850.60547 L 545.0957 851.09766 L 546.1875 851.69336 L 546.1875 852.19336 L 547.2793 852.78906 L 547.2793 853.28516 L 548.37891 853.88477 L 548.37891 854.38477 L 549.47852 854.98438 L 549.47852 855.48438 L 550.58203 856.08594 L 550.58203 856.58789 L 551.68945 857.19141 L 551.68945 857.69531 L 552.80078 858.30273 L 552.80078 858.80664 L 553.91211 859.41406 L 553.91211 859.91797 L 555.02734 860.52734 L 555.02734 861.0332 L 556.14648 861.64453 L 556.14648 862.15234 L 557.26953 862.76562 L 557.26953 863.27344 L 558.39062 863.88477 L 558.39062 864.39648 L 559.51758 865.01172 L 559.51758 865.52344 L 560.64844 866.14062 L 560.64844 866.65234 L 561.78125 867.27148 L 561.78125 867.78711 L 562.91602 868.40625 L 562.91602 868.92188 L 564.05273 869.54297 L 564.05273 870.05859 L 565.19336 870.68164 L 565.19336 871.19922 L 566.33984 871.82422 L 566.33984 872.3457 L 567.48438 872.9707 L 567.48438 873.49023 L 568.63672 874.11914 L 568.63672 874.63867 L 569.78711 875.26562 L 569.78711 875.79297 L 570.94336 876.42383 L 570.94336 876.94922 L 572.10352 877.58203 L 572.10352 878.10547 L 573.26367 878.73828 L 573.26367 879.26953 L 574.42773 879.9043 L 574.42773 880.43359 L 575.5918 881.06836 L 575.5918 881.59766 L 576.76367 882.23633 L 576.76367 882.76953 L 577.93555 883.4082 L 577.93555 883.94141 L 579.11133 884.58398 L 579.11133 885.11719 L 580.28906 885.75977 L 580.28906 886.29492 L 581.46875 886.93945 L 581.46875 887.47461 L 582.65234 888.12109 L 582.65234 888.6582 L 583.83789 889.30469 L 583.83789 889.84375 L 585.0293 890.49414 L 585.0293 891.03516 L 586.2207 891.68555 L 586.2207 892.22461 L 587.41797 892.87891 L 587.41797 893.42383 L 588.61523 894.07812 L 588.61523 894.61719 L 589.81445 895.27148 L 589.81445 895.82031 L 591.01953 896.47852 L 591.01953 897.02539 L 592.22461 897.68359 L 592.22461 898.23047 L 593.43555 898.89062 L 593.43555 899.44141 L 594.64844 900.10352 L 594.64844 900.6543 L 595.86133 901.31641 L 595.86133 901.86719 L 597.07812 902.53125 L 597.07812 903.08398 L 598.29883 903.75 L 598.29883 904.30469 L 599.52344 904.97266 L 599.52344 905.5293 L 600.75195 906.19922 L 600.75195 906.75781 L 601.98047 907.42773 L 601.98047 907.98633 L 603.21289 908.6582 L 603.21289 909.21875 L 604.44922 909.89258 L 604.44922 910.45508 L 605.68359 911.12891 L 605.68359 911.68945 L 606.92773 912.36914 L 606.92773 912.93359 L 608.17188 913.61328 L 608.17188 914.17773 L 609.41406 914.85547 L 609.41406 915.41992 L 610.66602 916.10352 L 610.66602 916.67188 L 611.91602 917.35352 L 611.91602 917.92188 L 613.17188 918.60742 L 613.17188 919.17773 L 614.42969 919.86328 L 614.42969 920.43555 L 615.69336 921.125 L 615.69336 921.69922 L 616.95508 922.38867 L 616.95508 922.96094 L 618.2207 923.65234 L 618.2207 924.22656 L 619.49023 924.91992 L 619.49023 925.49609 L 620.76172 926.18945 L 620.76172 926.76758 L 622.03906 927.46484 L 622.03906 928.04492 L 623.31641 928.74219 L 623.31641 929.32227 L 624.59766 930.02148 L 624.59766 930.60352 L 625.87891 931.30273 L 625.87891 931.88477 L 627.16797 932.58789 L 627.16797 933.16992 L 628.45703 933.87305 L 628.45703 934.46094 L 629.74414 935.16406 L 629.74414 935.75 L 631.04102 936.45703 L 631.04102 937.04688 L 632.33789 937.75391 L 632.33789 938.34375 L 633.64062 939.05469 L 633.64062 939.64258 L 634.94141 940.35156 L 634.94141 940.94727 L 636.25 941.66211 L 636.25 942.25586 L 637.55664 942.96875 L 637.55664 943.5625 L 638.87305 944.28125 L 638.87305 944.875 L 640.18359 945.58984 L 640.18359 946.18945 L 641.50391 946.91016 L 641.50391 947.50781 L 642.82227 948.22656 L 642.82227 948.82812 L 644.14844 949.55273 L 644.14844 950.1543 L 645.4707 950.875 L 645.4707 951.47656 L 646.80273 952.20312 L 646.80273 952.80664 L 648.13281 953.5332 L 648.13281 954.13867 L 649.4707 954.86914 L 649.4707 955.47656 L 650.80859 956.20703 L 650.80859 956.81445 L 652.14648 957.54492 L 652.14648 958.15234 L 653.49219 958.88672 L 653.49219 959.49805 L 654.83789 960.23242 L 654.83789 960.84375 L 656.18555 961.58008 L 656.18555 962.19141 L 657.53516 962.92773 L 657.53516 963.54102 L 658.89258 964.28125 L 658.89258 964.89844 L 660.25 965.63867 L 660.25 966.25586 L 661.60938 966.99805 L 661.60938 967.61523 L 662.97461 968.35938 L 662.97461 968.98047 L 664.33984 969.72461 L 664.33984 970.34375 L 665.70703 971.08984 L 665.70703 971.71289 L 667.07812 972.46094 L 667.07812 973.08398 L 668.45508 973.83594 L 668.45508 974.46094 L 669.83008 975.21094 L 669.83008 975.83594 L 671.21289 976.58984 L 671.21289 977.21875 L 672.59766 977.97461 L 672.59766 978.60352 L 673.98047 979.35742 L 673.98047 979.98633 L 675.37109 980.74609 L 675.37109 981.37695 L 676.76172 982.13672 L 676.76172 982.76758 L 678.15625 983.5293 L 678.15625 984.16211 L 679.55469 984.92578 L 679.55469 985.56055 L 680.95312 986.32422 L 680.95312 986.95898 L 682.35547 987.72461 L 682.35547 988.36133 L 683.76172 989.12891 L 683.76172 989.76758 L 685.17188 990.53711 L 685.17188 991.17773 L 686.58594 991.94922 L 686.58594 992.5918 L 687.99805 993.36328 L 687.99805 994.00391 L 689.41602 994.77734 L 689.41602 995.42188 L 690.83789 996.19727 L 690.83789 996.84375 L 692.25781 997.61914 L 692.25781 998.26367 L 693.6875 999.04297 L 693.6875 999.69336 L 695.11523 1000.4727 L 695.11523 1001.1211 L 696.54492 1001.9004 L 696.54492 1002.5508 L 697.98047 1003.334 L 697.98047 1003.9863 L 699.41602 1004.7695 L 699.41602 1005.4219 L 700.85742 1006.209 L 700.85742 1006.8633 L 702.30078 1007.6504 L 702.30078 1008.3066 L 703.74805 1009.0957 L 703.74805 1009.7539 L 705.19531 1010.543 L 705.19531 1011.2012 L 706.64648 1011.9922 L 706.64648 1012.6523 L 708.10156 1013.4473 L 708.10156 1014.1074 L 709.55664 1014.9023 L 709.55664 1015.5625 L 711.01953 1016.3613 L 711.01953 1017.0254 L 712.48242 1017.8242 L 712.48242 1018.4883 L 713.94922 1019.2891 L 713.94922 1019.9551 L 715.41602 1020.7559 L 715.41602 1021.4219 L 716.88867 1022.2246 L 716.88867 1022.8906 L 718.36328 1023.6953 L 718.36328 1024.3691 L 719.83789 1025.1738 L 719.83789 1025.8438 L 721.31836 1026.6523 L 721.31836 1027.3242 L 722.80078 1028.1328 L 722.80078 1028.8066 L 724.28516 1029.6172 L 724.28516 1030.291 L 725.77539 1031.1035 L 725.77539 1031.7812 L 727.26758 1032.5957 L 727.26758 1033.2734 L 728.76172 1034.0879 L 728.76172 1034.7676 L 730.25781 1035.584 L 730.25781 1036.2637 L 731.75781 1037.082 L 731.75781 1037.7637 L 733.26172 1038.584 L 733.26172 1039.2676 L 734.76758 1040.0898 L 734.76758 1040.7715 L 736.27539 1041.5938 L 736.27539 1042.2812 L 737.78711 1043.1055 L 737.78711 1043.793 L 739.30273 1044.6191 L 739.30273 1045.3086 L 740.81836 1046.1348 L 740.81836 1046.8242 L 742.33984 1047.6543 L 742.33984 1048.3418 L 743.85938 1049.1719 L 743.85938 1049.8652 L 745.38672 1050.6992 L 745.38672 1051.3926 L 746.91797 1052.2285 L 746.91797 1052.9199 L 748.44922 1053.7559 L 748.44922 1054.4551 L 749.98242 1055.291 L 749.98242 1055.9883 L 751.51758 1056.8262 L 751.51758 1057.5234 L 753.05859 1058.3652 L 753.05859 1059.0645 L 754.60156 1059.9062 L 754.60156 1060.6074 L 756.14648 1061.4512 L 756.14648 1062.1523 L 757.69727 1062.998 L 757.69727 1063.6992 L 759.24609 1064.5449 L 759.24609 1065.252 L 760.80078 1066.0996 L 760.80078 1066.8066 L 762.35742 1067.6562 L 762.35742 1068.3633 L 763.91797 1069.2148 L 763.91797 1069.9238 L 765.47852 1070.7754 L 765.47852 1071.4844 L 767.04297 1072.3379 L 767.04297 1073.0488 L 768.61133 1073.9043 L 768.61133 1074.6172 L 770.18359 1075.4746 L 770.18359 1076.1895 L 771.75977 1077.0488 L 771.75977 1077.7656 L 773.33594 1078.625 L 773.33594 1079.3418 L 774.91602 1080.2031 L 774.91602 1080.9219 L 776.5 1081.7871 L 776.5 1082.5059 L 778.08398 1083.3711 L 778.08398 1084.0898 L 779.67188 1084.957 L 779.67188 1085.6777 L 781.26172 1086.5449 L 781.26172 1087.2676 L 782.85742 1088.1387 L 782.85742 1088.8633 L 784.45703 1089.7363 L 784.45703 1090.4609 L 786.05469 1091.332 L 786.05469 1092.0605 L 787.6582 1092.9355 L 787.6582 1093.6621 L 789.26367 1094.5391 L 789.26367 1095.2695 L 790.86914 1096.1465 L 790.86914 1096.875 L 792.48047 1097.7539 L 792.48047 1098.4863 L 794.09375 1099.3672 L 794.09375 1100.0996 L 795.71094 1100.9824 L 795.71094 1101.7168 L 797.33203 1102.6016 L 797.33203 1103.3379 L 798.95508 1104.2227 L 798.95508 1104.9609 L 800.58008 1105.8477 L 800.58008 1106.5859 L 802.20898 1107.4746 L 802.20898 1108.2148 L 803.83789 1109.1035 L 803.83789 1109.8438 L 805.47461 1110.7363 L 805.47461 1111.4805 L 807.11133 1112.373 L 807.11133 1113.1172 L 808.75 1114.0117 L 808.75 1114.7559 L 810.39062 1115.6504 L 810.39062 1116.3965 L 812.03516 1117.2949 L 812.03516 1118.041 L 813.6875 1118.9434 L 813.6875 1119.6895 L 815.33398 1120.5879 L 815.33398 1121.3398 L 816.99023 1122.2441 L 816.99023 1122.9961 L 818.64648 1123.9004 L 818.64648 1124.6504 L 820.30469 1125.5547 L 820.30469 1126.3105 L 821.96875 1127.2188 L 821.96875 1127.9727 L 823.63477 1128.8828 L 823.63477 1129.6406 L 825.30078 1130.5488 L 825.30078 1131.3066 L 826.97266 1132.2188 L 826.97266 1132.9785 L 828.64648 1133.8926 L 828.64648 1134.6523 L 830.32422 1135.5684 L 830.32422 1136.3301 L 832.00195 1137.2461 L 832.00195 1138.0078 L 833.68359 1138.9258 L 833.68359 1139.6895 L 835.36914 1140.6094 L 835.36914 1141.375 L 837.05859 1142.2969 L 837.05859 1143.0645 L 838.74805 1143.9863 L 838.74805 1144.7539 L 840.44141 1145.6777 L 840.44141 1146.4473 L 842.13867 1147.373 L 842.13867 1148.1445 L 843.83984 1149.0723 L 843.83984 1149.8457 L 845.54102 1150.7734 L 845.54102 1151.5469 L 847.24609 1152.4766 L 847.24609 1153.252 L 848.95312 1154.1836 L 848.95312 1154.959 L 850.66602 1155.8945 L 850.66602 1156.6719 L 852.37891 1157.6074 L 852.37891 1158.3828 L 854.09375 1159.3184 L 854.09375 1160.0996 L 855.81445 1161.0391 L 855.81445 1161.8184 L 857.53711 1162.7578 L 857.53711 1163.543 L 859.25977 1164.4824 L 859.25977 1165.2656 L 860.99219 1166.2109 L 860.99219 1166.998 L 862.71875 1167.9395 L 862.71875 1168.7246 L 864.45312 1169.6719 L 864.45312 1170.459 L 866.19141 1171.4082 L 866.19141 1172.1973 L 867.93164 1173.1465 L 867.93164 1173.9355 L 869.67383 1174.8867 L 869.67383 1175.6797 L 871.41602 1176.6309 L 871.41602 1177.4219 L 873.16602 1178.377 L 873.16602 1179.1719 L 874.91602 1180.127 L 874.91602 1180.9219 L 876.66992 1181.8789 L 876.66992 1182.6738 L 878.42578 1183.6328 L 878.42578 1184.4316 L 880.18359 1185.3906 L 880.18359 1186.1895 L 881.94531 1187.1504 L 881.94531 1187.9512 L 883.71094 1188.9141 L 883.71094 1189.7168 L 885.47852 1190.6816 L 885.47852 1191.4844 L 887.25195 1192.4531 L 887.25195 1193.2578 L 889.02344 1194.2246 L 889.02344 1195.0293 L 890.80078 1196 L 890.80078 1196.8066 L 892.58008 1197.7773 L 892.58008 1198.5859 L 894.36133 1199.5586 L 894.36133 1200.3672 L 896.14453 1201.3398 L 896.14453 1202.1504 L 897.93164 1203.125 L 897.93164 1203.9375 L 899.72461 1204.916 L 899.72461 1205.7305 L 901.51953 1206.7109 L 901.51953 1207.5254 L 903.31445 1208.5039 L 903.31445 1209.3203 L 905.11328 1210.3027 L 905.11328 1211.1191 L 906.91602 1212.1035 L 906.91602 1212.9219 L 908.71875 1213.9062 L 908.71875 1214.7246 L 910.5293 1215.7129 L 910.5293 1216.5352 L 912.33984 1217.5234 L 912.33984 1218.3457 L 914.15039 1219.334 L 914.15039 1220.1562 L 915.96875 1221.1484 L 915.96875 1221.9746 L 917.78711 1222.9668 L 917.78711 1223.793 L 919.60742 1224.7871 L 919.60742 1225.6133 L 921.43359 1226.6094 L 921.43359 1227.4395 L 923.26367 1228.4375 L 923.26367 1229.2695 L 925.0918 1230.2676 L 925.0918 1231.0977 L 926.92578 1232.0977 L 926.92578 1232.9316 L 928.76172 1233.9336 L 928.76172 1234.7676 L 930.59961 1235.7715 L 930.59961 1236.6055 L 932.44336 1237.6113 L 932.44336 1238.4492 L 934.28711 1239.4551 L 934.28711 1240.293 L 936.13672 1241.3027 L 936.13672 1242.1426 L 937.98438 1243.1504 L 937.98438 1243.9902 L 939.83984 1245.002 L 939.83984 1245.8457 L 941.69531 1246.8574 L 941.69531 1247.7012 L 943.55469 1248.7168 L 943.55469 1249.5605 L 945.41406 1250.5762 L 945.41406 1251.4199 L 947.28125 1252.4395 L 947.28125 1253.2871 L 949.14844 1254.3066 L 949.14844 1255.1543 L 951.01953 1256.1758 L 951.01953 1257.0215 L 952.89062 1258.043 L 952.89062 1258.8965 L 954.76953 1259.9219 L 954.76953 1260.7715 L 956.64844 1261.7969 L 956.64844 1262.6523 L 958.5293 1263.6797 L 958.5293 1264.5352 L 960.41211 1265.5625 L 960.41211 1266.418 L 962.30078 1267.4492 L 962.30078 1268.3066 L 964.19141 1269.3379 L 964.19141 1270.1973 L 966.08594 1271.2305 L 966.08594 1272.0898 L 967.97852 1273.123 L 967.97852 1273.9844 L 969.87891 1275.0215 L 969.87891 1275.8848 L 971.78125 1276.9238 L 971.78125 1277.7871 L 973.68555 1278.8262 L 973.68555 1279.6914 L 975.58984 1280.7305 L 975.58984 1281.5957 L 977.50391 1282.6406 L 977.50391 1283.5078 L 979.41602 1284.5508 L 979.41602 1285.4219 L 981.33203 1286.4668 L 981.33203 1287.3379 L 983.25195 1288.3848 L 983.25195 1289.2578 L 985.17188 1290.3047 L 985.17188 1291.1777 L 987.0957 1292.2285 L 987.0957 1293.1016 L 989.02344 1294.1543 L 989.02344 1295.0293 L 990.95508 1296.084 L 990.95508 1296.9609 L 992.88477 1298.0137 L 992.88477 1298.8906 L 994.82422 1299.9492 L 994.82422 1300.8301 L 996.76367 1301.8887 L 996.76367 1302.7656 L 998.70312 1303.8242 L 998.70312 1304.709 L 1000.6484 1305.7715 L 1000.6484 1306.6543 L 1002.5957 1307.7168 L 1002.5957 1308.6016 L 1004.5449 1309.666 L 1004.5449 1310.5508 L 1006.5 1311.6172 L 1006.5 1312.5059 L 1008.4531 1313.5723 L 1008.4531 1314.459 L 1010.4121 1315.5273 L 1010.4121 1316.418 L 1012.373 1317.4883 L 1012.373 1318.3789 L 1014.3379 1319.4512 L 1014.3379 1320.3438 L 1016.3066 1321.418 L 1016.3066 1322.3125 L 1018.2773 1323.3887 L 1018.2773 1324.2812 L 1020.25 1325.3574 L 1020.25 1326.2559 L 1022.2266 1327.334 L 1022.2266 1328.2324 L 1024.2031 1329.3105 L 1024.2031 1330.209 L 1026.1836 1331.2891 L 1026.1836 1332.1895 L 1028.168 1333.2715 L 1028.168 1334.1738 L 1030.1562 1335.2598 L 1030.1562 1336.1621 L 1032.1465 1337.248 L 1032.1465 1338.1523 L 1034.1387 1339.2402 L 1034.1387 1340.1445 L 1210.0039 1436.1191 L 1385.8691 1340.1445 L 1385.8691 1284.7324 L 1387.1504 1284.7324 L 1387.1504 1286.6562 L 1389.0742 1286.6562 L 1389.0742 1288.5801 L 1391.002 1288.5801 L 1391.002 1290.5078 L 1392.9297 1290.5078 L 1392.9297 1292.4355 L 1394.8652 1292.4355 L 1394.8652 1294.3711 L 1396.8008 1294.3711 L 1396.8008 1296.3066 L 1398.7383 1296.3066 L 1398.7383 1298.2441 L 1400.6816 1298.2441 L 1400.6816 1300.1875 L 1402.625 1300.1875 L 1402.625 1302.1309 L 1404.5742 1302.1309 L 1404.5742 1304.0762 L 1406.5215 1304.0762 L 1406.5215 1306.0273 L 1408.4746 1306.0273 L 1408.4746 1307.9805 L 1410.4336 1307.9805 L 1410.4336 1309.9395 L 1412.3906 1309.9395 L 1412.3906 1311.8965 L 1414.3516 1311.8965 L 1414.3516 1313.8574 L 1416.3184 1313.8574 L 1416.3184 1315.8242 L 1418.2832 1315.8242 L 1418.2832 1317.7891 L 1420.252 1317.7891 L 1420.252 1319.7578 L 1422.2246 1319.7578 L 1422.2246 1321.7305 L 1424.2012 1321.7305 L 1424.2012 1323.707 L 1426.1816 1323.707 L 1426.1816 1325.6875 L 1428.1621 1325.6875 L 1428.1621 1327.668 L 1430.1465 1327.668 L 1430.1465 1329.6523 L 1432.1348 1329.6523 L 1432.1348 1331.6406 L 1434.123 1331.6406 L 1434.123 1333.6289 L 1436.1191 1333.6289 L 1436.1191 1335.6211 L 1486.3633 1335.6211 L 1486.3633 1134.6328 L 1484.3711 1133.5469 L 1484.3711 1132.6406 L 1482.3789 1131.5547 L 1482.3789 1130.6504 L 1480.3965 1129.5684 L 1480.3965 1128.666 L 1478.4121 1127.584 L 1478.4121 1126.6816 L 1476.4277 1125.5996 L 1476.4277 1124.6973 L 1474.4512 1123.6191 L 1474.4512 1122.7207 L 1472.4746 1121.6426 L 1472.4746 1120.7441 L 1470.5 1119.668 L 1470.5 1118.7695 L 1468.5312 1117.6953 L 1468.5312 1116.8008 L 1466.5625 1115.7266 L 1466.5625 1114.832 L 1464.5977 1113.7598 L 1464.5977 1112.8672 L 1462.6348 1111.7969 L 1462.6348 1110.9043 L 1460.6777 1109.8359 L 1460.6777 1108.9473 L 1458.7246 1107.8828 L 1458.7246 1106.9941 L 1456.7695 1105.9277 L 1456.7695 1105.0391 L 1454.8203 1103.9766 L 1454.8203 1103.0898 L 1452.873 1102.0273 L 1452.873 1101.1426 L 1450.9258 1100.0801 L 1450.9258 1099.1953 L 1448.9883 1098.1387 L 1448.9883 1097.2578 L 1447.0488 1096.1992 L 1447.0488 1095.3184 L 1445.1133 1094.2617 L 1445.1133 1093.3789 L 1443.1777 1092.3223 L 1443.1777 1091.4473 L 1441.248 1090.3945 L 1441.248 1089.5176 L 1439.3203 1088.4668 L 1439.3203 1087.5898 L 1437.3965 1086.541 L 1437.3965 1085.666 L 1435.4766 1084.6191 L 1435.4766 1083.7461 L 1433.5566 1082.6992 L 1433.5566 1081.8262 L 1431.6406 1080.7812 L 1431.6406 1079.9102 L 1429.7266 1078.8652 L 1429.7266 1077.9961 L 1427.8184 1076.9551 L 1427.8184 1076.0879 L 1425.9102 1075.0469 L 1425.9102 1074.1797 L 1424.0059 1073.1406 L 1424.0059 1072.2754 L 1422.1035 1071.2383 L 1422.1035 1070.373 L 1420.2031 1069.3359 L 1420.2031 1068.4727 L 1418.3086 1067.4395 L 1418.3086 1066.5781 L 1416.416 1065.5449 L 1416.416 1064.6855 L 1414.5254 1063.6543 L 1414.5254 1062.7949 L 1412.6367 1061.7656 L 1412.6367 1060.9062 L 1410.7539 1059.8789 L 1410.7539 1059.0234 L 1408.8711 1057.9961 L 1408.8711 1057.1406 L 1406.9941 1056.1172 L 1406.9941 1055.2637 L 1405.1152 1054.2383 L 1405.1152 1053.3848 L 1403.2441 1052.3633 L 1403.2441 1051.5137 L 1401.373 1050.4922 L 1401.373 1049.6426 L 1399.5059 1048.625 L 1399.5059 1047.7754 L 1397.6387 1046.7578 L 1397.6387 1045.9082 L 1395.7793 1044.8945 L 1395.7793 1044.0488 L 1393.9199 1043.0352 L 1393.9199 1042.1895 L 1392.0645 1041.1777 L 1392.0645 1040.334 L 1390.209 1039.3223 L 1390.209 1038.4785 L 1388.3594 1037.4688 L 1388.3594 1036.6309 L 1386.5117 1035.623 L 1386.5117 1034.7812 L 1384.668 1033.7754 L 1384.668 1032.9375 L 1382.8262 1031.9336 L 1382.8262 1031.0977 L 1380.9863 1030.0938 L 1380.9863 1029.2559 L 1379.1504 1028.2539 L 1379.1504 1027.4199 L 1377.3164 1026.4199 L 1377.3164 1025.5859 L 1375.4863 1024.5879 L 1375.4863 1023.7578 L 1373.6582 1022.7598 L 1373.6582 1021.9277 L 1371.832 1020.9316 L 1371.832 1020.1016 L 1370.0098 1019.1074 L 1370.0098 1018.2812 L 1368.1934 1017.291 L 1368.1934 1016.4629 L 1366.3789 1015.4727 L 1366.3789 1014.6484 L 1364.5645 1013.6582 L 1364.5645 1012.834 L 1362.7539 1011.8457 L 1362.7539 1011.0234 L 1360.9434 1010.0352 L 1360.9434 1009.2129 L 1359.1406 1008.2305 L 1359.1406 1007.4102 L 1357.3379 1006.4277 L 1357.3379 1005.6074 L 1355.5391 1004.627 L 1355.5391 1003.8086 L 1353.7441 1002.8301 L 1353.7441 1002.0137 L 1351.9492 1001.0352 L 1351.9492 1000.2188 L 1350.1602 999.24219 L 1350.1602 998.42969 L 1348.373 997.45508 L 1348.373 996.64258 L 1346.5859 995.66797 L 1346.5859 994.85547 L 1344.8047 993.88477 L 1344.8047 993.07422 L 1343.0254 992.10352 L 1343.0254 991.29492 L 1341.248 990.32617 L 1341.248 989.51758 L 1339.4766 988.55078 L 1339.4766 987.74609 L 1337.7031 986.7793 L 1337.7031 985.97266 L 1335.9375 985.00977 L 1335.9375 984.20703 L 1334.1738 983.24414 L 1334.1738 982.44336 L 1332.4082 981.48047 L 1332.4082 980.67773 L 1330.6504 979.71875 L 1330.6504 978.91992 L 1328.8926 977.96094 L 1328.8926 977.16211 L 1327.1387 976.20508 L 1327.1387 975.4082 L 1325.3887 974.45312 L 1325.3887 973.66016 L 1323.6426 972.70703 L 1323.6426 971.91211 L 1321.8965 970.95898 L 1321.8965 970.16602 L 1320.1543 969.21484 L 1320.1543 968.42383 L 1318.416 967.47656 L 1318.416 966.68555 L 1316.6777 965.73828 L 1316.6777 964.94727 L 1314.9473 964.00391 L 1314.9473 963.2168 L 1313.2148 962.27148 L 1313.2148 961.48633 L 1311.4883 960.54492 L 1311.4883 959.75781 L 1309.7617 958.81641 L 1309.7617 958.03125 L 1308.0371 957.08984 L 1308.0371 956.30664 L 1306.3223 955.37109 L 1306.3223 954.5918 L 1304.6016 953.65234 L 1304.6016 952.87109 L 1302.8906 951.9375 L 1302.8906 951.16016 L 1301.1777 950.22656 L 1301.1777 949.44727 L 1299.4688 948.51562 L 1299.4688 947.73828 L 1297.7656 946.80859 L 1297.7656 946.03516 L 1296.0645 945.10742 L 1296.0645 944.33398 L 1294.3633 943.40625 L 1294.3633 942.63281 L 1292.666 941.70703 L 1292.666 940.93555 L 1290.9727 940.01172 L 1290.9727 939.24219 L 1289.2832 938.32031 L 1289.2832 937.55273 L 1287.5938 936.63086 L 1287.5938 935.86328 L 1285.9082 934.94336 L 1285.9082 934.17773 L 1284.2266 933.25977 L 1284.2266 932.49609 L 1282.5488 931.58008 L 1282.5488 930.81836 L 1280.8711 929.90234 L 1280.8711 929.14062 L 1279.1953 928.22656 L 1279.1953 927.4668 L 1277.5254 926.55664 L 1277.5254 925.79492 L 1275.8594 924.88672 L 1275.8594 924.12891 L 1274.1914 923.21875 L 1274.1914 922.46094 L 1272.5293 921.55469 L 1272.5293 920.79883 L 1270.8691 919.89258 L 1270.8691 919.13867 L 1269.2148 918.23633 L 1269.2148 917.48438 L 1267.5586 916.58008 L 1267.5586 915.82812 L 1265.9121 914.92969 L 1265.9121 914.18164 L 1264.2637 913.2832 L 1264.2637 912.5332 L 1262.6152 911.63477 L 1262.6152 910.88477 L 1260.9746 909.99023 L 1260.9746 909.24414 L 1259.334 908.34961 L 1259.334 907.60352 L 1257.6992 906.71094 L 1257.6992 905.96875 L 1256.0664 905.07812 L 1256.0664 904.33594 L 1254.4336 903.44531 L 1254.4336 902.70312 L 1252.8047 901.81445 L 1252.8047 901.07422 L 1251.1777 900.1875 L 1251.1777 899.44727 L 1249.5566 898.5625 L 1249.5566 897.82617 L 1247.9355 896.94141 L 1247.9355 896.20508 L 1246.3223 895.32422 L 1246.3223 894.5918 L 1244.709 893.71094 L 1244.709 892.97852 L 1243.0938 892.09766 L 1243.0938 891.36328 L 1241.4883 890.48828 L 1241.4883 889.75781 L 1239.8809 888.88086 L 1239.8809 888.15039 L 1238.2793 887.27734 L 1238.2793 886.54883 L 1236.6797 885.67578 L 1236.6797 884.94922 L 1235.082 884.07812 L 1235.082 883.35156 L 1233.4863 882.48047 L 1233.4863 881.75586 L 1231.8945 880.88672 L 1231.8945 880.16602 L 1230.3086 879.30078 L 1230.3086 878.57812 L 1228.7246 877.71484 L 1228.7246 876.99414 L 1227.1406 876.13086 L 1227.1406 875.41016 L 1225.5605 874.54883 L 1225.5605 873.83008 L 1223.9844 872.9707 L 1223.9844 872.25391 L 1222.4082 871.39453 L 1222.4082 870.67773 L 1220.8398 869.82227 L 1220.8398 869.10938 L 1219.2715 868.25391 L 1219.2715 867.54102 L 1217.7031 866.68555 L 1217.7031 865.97266 L 1216.1426 865.12109 L 1216.1426 864.41211 L 1214.582 863.56055 L 1214.582 862.85156 L 1213.0234 862.00195 L 1213.0234 861.29297 L 1211.4707 860.44531 L 1211.4707 859.74023 L 1209.9219 858.89453 L 1209.9219 858.19141 L 1208.3711 857.3457 L 1208.3711 856.64062 L 1206.8262 855.79883 L 1206.8262 855.0957 L 1205.2832 854.25391 L 1205.2832 853.55273 L 1203.7422 852.71289 L 1203.7422 852.01172 L 1202.207 851.17383 L 1202.207 850.47656 L 1200.6719 849.63867 L 1200.6719 848.94141 L 1199.1426 848.10742 L 1199.1426 847.41211 L 1197.6113 846.57617 L 1197.6113 845.88086 L 1196.0879 845.05078 L 1196.0879 844.35742 L 1194.5645 843.52734 L 1194.5645 842.83398 L 1193.0449 842.00586 L 1193.0449 841.31445 L 1191.5254 840.48633 L 1191.5254 839.79688 L 1190.0137 838.97266 L 1190.0137 838.2832 L 1188.502 837.45898 L 1188.502 836.77148 L 1186.9902 835.94727 L 1186.9902 835.25977 L 1185.4863 834.43945 L 1185.4863 833.75586 L 1183.9824 832.93555 L 1183.9824 832.25195 L 1182.4863 831.43555 L 1182.4863 830.75586 L 1180.9844 829.9375 L 1180.9844 829.25391 L 1179.4922 828.43945 L 1179.4922 827.76172 L 1178.0039 826.94922 L 1178.0039 826.26953 L 1176.5137 825.45703 L 1176.5137 824.7832 L 1175.0293 823.97266 L 1175.0293 823.29883 L 1173.543 822.48828 L 1173.543 821.8125 L 1172.0664 821.00781 L 1172.0664 820.33594 L 1170.5879 819.5293 L 1170.5879 818.85742 L 1169.1133 818.05273 L 1169.1133 817.38281 L 1167.6406 816.58008 L 1167.6406 815.91016 L 1166.1738 815.10938 L 1166.1738 814.44336 L 1164.707 813.64258 L 1164.707 812.97656 L 1163.2441 812.17773 L 1163.2441 811.51367 L 1161.7852 810.71875 L 1161.7852 810.05469 L 1160.3262 809.25977 L 1160.3262 808.5957 L 1158.8711 807.80273 L 1158.8711 807.14062 L 1157.4199 806.34961 L 1157.4199 805.68945 L 1155.9727 804.90039 L 1155.9727 804.24219 L 1154.5254 803.45312 L 1154.5254 802.79492 L 1153.0801 802.00586 L 1153.0801 801.34961 L 1151.6406 800.56445 L 1151.6406 799.91016 L 1150.2051 799.12695 L 1150.2051 798.47461 L 1148.7715 797.69336 L 1148.7715 797.04102 L 1147.3398 796.25977 L 1147.3398 795.60938 L 1145.9121 794.83008 L 1145.9121 794.18164 L 1144.4824 793.40234 L 1144.4824 792.75195 L 1143.0605 791.97656 L 1143.0605 791.33008 L 1141.6406 790.55469 L 1141.6406 789.91016 L 1140.2227 789.13672 L 1140.2227 788.49219 L 1138.8086 787.7207 L 1138.8086 787.07812 L 1137.3965 786.30859 L 1137.3965 785.66602 L 1135.9902 784.89844 L 1135.9902 784.25977 L 1134.584 783.49219 L 1134.584 782.85352 L 1133.1777 782.08594 L 1133.1777 781.44727 L 1131.7793 780.68359 L 1131.7793 780.04883 L 1130.3809 779.28516 L 1130.3809 778.65039 L 1128.9863 777.89062 L 1128.9863 777.25586 L 1127.5957 776.49805 L 1127.5957 775.86523 L 1126.2051 775.10742 L 1126.2051 774.47461 L 1124.8223 773.7207 L 1124.8223 773.0918 L 1123.4375 772.33594 L 1123.4375 771.70703 L 1122.0586 770.95508 L 1122.0586 770.32812 L 1120.6797 769.57617 L 1120.6797 768.94922 L 1119.3027 768.19727 L 1119.3027 767.57227 L 1117.9316 766.82422 L 1117.9316 766.20117 L 1116.5625 765.45508 L 1116.5625 764.83203 L 1115.1992 764.08789 L 1115.1992 763.46875 L 1113.834 762.72461 L 1113.834 762.10352 L 1112.4746 761.36133 L 1112.4746 760.74414 L 1111.1172 760.00391 L 1111.1172 759.38672 L 1109.7637 758.64844 L 1109.7637 758.0332 L 1108.4102 757.29492 L 1108.4102 756.67969 L 1107.0605 755.94336 L 1107.0605 755.33008 L 1105.7168 754.59766 L 1105.7168 753.98633 L 1104.3711 753.25195 L 1104.3711 752.64062 L 1103.0332 751.91016 L 1103.0332 751.30273 L 1101.6953 750.57227 L 1101.6953 749.96484 L 1100.3594 749.23633 L 1100.3594 748.63086 L 1099.0254 747.90234 L 1099.0254 747.29492 L 1097.6992 746.57227 L 1097.6992 745.96875 L 1096.373 745.24609 L 1096.373 744.64258 L 1095.0508 743.92188 L 1095.0508 743.32031 L 1093.7266 742.59766 L 1093.7266 741.99609 L 1092.4121 741.2793 L 1092.4121 740.68164 L 1091.0977 739.96484 L 1091.0977 739.36719 L 1089.7852 738.65039 L 1089.7852 738.05469 L 1088.4746 737.33984 L 1088.4746 736.74414 L 1087.1699 736.0332 L 1087.1699 735.43945 L 1085.8652 734.72852 L 1085.8652 734.13477 L 1084.5664 733.42578 L 1084.5664 732.83594 L 1083.2656 732.12695 L 1083.2656 731.53516 L 1081.9727 730.83008 L 1081.9727 730.24219 L 1080.6797 729.53711 L 1080.6797 728.94922 L 1079.3906 728.24609 L 1079.3906 727.66016 L 1078.1035 726.95898 L 1078.1035 726.37305 L 1076.8223 725.67383 L 1076.8223 725.0918 L 1075.541 724.39258 L 1075.541 723.81055 L 1074.2617 723.11328 L 1074.2617 722.5332 L 1072.9883 721.83789 L 1072.9883 721.25781 L 1071.7148 720.5625 L 1071.7148 719.98438 L 1070.4453 719.29102 L 1070.4453 718.71484 L 1069.1797 718.02539 L 1069.1797 717.44922 L 1067.916 716.75977 L 1067.916 716.18555 L 1066.6543 715.49805 L 1066.6543 714.92383 L 1065.3965 714.23828 L 1065.3965 713.66602 L 1064.1406 712.98047 L 1064.1406 712.41016 L 1062.8906 711.72852 L 1062.8906 711.16016 L 1061.6426 710.47852 L 1061.6426 709.91211 L 1060.3965 709.23242 L 1060.3965 708.66602 L 1059.1523 707.98828 L 1059.1523 707.42188 L 1057.9082 706.74414 L 1057.9082 706.17773 L 1056.6719 705.50391 L 1056.6719 704.94141 L 1055.4375 704.26758 L 1055.4375 703.70703 L 1054.2051 703.03516 L 1054.2051 702.47461 L 1052.9766 701.80469 L 1052.9766 701.24609 L 1051.748 700.57617 L 1051.748 700.01758 L 1050.5273 699.35156 L 1050.5273 698.79688 L 1049.3066 698.13086 L 1049.3066 697.57617 L 1048.0859 696.91016 L 1048.0859 696.35547 L 1046.873 695.69336 L 1046.873 695.14258 L 1045.6602 694.48047 L 1045.6602 693.92969 L 1044.4492 693.26953 L 1044.4492 692.71875 L 1043.2441 692.06055 L 1043.2441 691.51367 L 1042.0391 690.85547 L 1042.0391 690.30859 L 1040.8398 689.6543 L 1040.8398 689.10938 L 1039.6426 688.45703 L 1039.6426 687.91211 L 1038.4473 687.25977 L 1038.4473 686.71289 L 1037.2539 686.0625 L 1037.2539 685.52344 L 1036.0625 684.87305 L 1036.0625 684.33203 L 1034.877 683.68555 L 1034.877 683.14648 L 1033.6934 682.5 L 1033.6934 681.96289 L 1032.5137 681.32031 L 1032.5137 680.7832 L 1031.334 680.14062 L 1031.334 679.60352 L 1030.1602 678.96289 L 1030.1602 678.42969 L 1028.9883 677.79102 L 1028.9883 677.25781 L 1027.8164 676.61914 L 1027.8164 676.08594 L 1026.6523 675.45117 L 1026.6523 674.92188 L 1025.4883 674.28711 L 1025.4883 673.75781 L 1024.3281 673.125 L 1024.3281 672.59766 L 1023.168 671.96484 L 1023.168 671.4375 L 1022.0137 670.80859 L 1022.0137 670.2832 L 1020.8613 669.6543 L 1020.8613 669.13086 L 1019.7129 668.50391 L 1019.7129 667.98242 L 1018.5645 667.35547 L 1018.5645 666.83398 L 1017.418 666.20898 L 1017.418 665.6875 L 1016.2812 665.06836 L 1016.2812 664.55078 L 1015.1387 663.92773 L 1015.1387 663.4082 L 1014.0059 662.79102 L 1014.0059 662.27539 L 1012.8711 661.65625 L 1012.8711 661.14062 L 1011.7461 660.52734 L 1011.7461 660.01562 L 1010.6152 659.39844 L 1010.6152 658.88477 L 1009.4922 658.27148 L 1009.4922 657.76172 L 1008.3711 657.15039 L 1008.3711 656.64062 L 1007.2559 656.0332 L 1007.2559 655.52539 L 1006.1367 654.91406 L 1006.1367 654.40625 L 1005.0254 653.80078 L 1005.0254 653.29492 L 1003.9141 652.68945 L 1003.9141 652.18359 L 1002.8105 651.58203 L 1002.8105 651.08008 L 1001.707 650.47852 L 1001.707 649.97656 L 1000.6035 649.375 L 1000.6035 648.87305 L 999.50781 648.27539 L 999.50781 647.77734 L 998.41211 647.17969 L 998.41211 646.68164 L 997.31836 646.08594 L 997.31836 645.58789 L 996.22656 644.99219 L 996.22656 644.49609 L 995.14258 643.9043 L 995.14258 643.41211 L 994.05664 642.82031 L 994.05664 642.32617 L 992.97656 641.73633 L 992.97656 641.24609 L 991.89844 640.6582 L 991.89844 640.16797 L 990.82227 639.58008 L 990.82227 639.0918 L 989.74805 638.50586 L 989.74805 638.01758 L 988.67969 637.43555 L 988.67969 636.94922 L 987.61328 636.36719 L 987.61328 635.88281 L 986.54688 635.30078 L 986.54688 634.81641 L 985.48828 634.23828 L 985.48828 633.75781 L 984.43164 633.18164 L 984.43164 632.70117 L 983.37305 632.12305 L 983.37305 631.64258 L 982.32227 631.07031 L 982.32227 630.5918 L 981.27148 630.01953 L 981.27148 629.54102 L 980.22461 628.9707 L 980.22461 628.49414 L 979.18164 627.92578 L 979.18164 627.45117 L 978.13867 626.88281 L 978.13867 626.4082 L 977.09766 625.83984 L 977.09766 625.36914 L 976.0625 624.80469 L 976.0625 624.33203 L 975.03125 623.76953 L 975.03125 623.30078 L 974.00391 622.74023 L 974.00391 622.27344 L 972.97461 621.71289 L 972.97461 621.24414 L 971.95117 620.68555 L 971.95117 620.2207 L 970.92969 619.66406 L 970.92969 619.19922 L 969.91016 618.64258 L 969.91016 618.17969 L 968.89258 617.625 L 968.89258 617.16211 L 967.88086 616.60938 L 967.88086 616.15039 L 966.87109 615.59961 L 966.87109 615.14062 L 965.86523 614.5918 L 965.86523 614.13477 L 964.86133 613.58789 L 964.86133 613.13086 L 963.85938 612.58398 L 963.85938 612.12891 L 962.86133 611.58398 L 962.86133 611.13086 L 961.86328 610.58594 L 961.86328 610.13281 L 960.87305 609.5918 L 960.87305 609.14258 L 959.88281 608.60156 L 959.88281 608.15234 L 958.89648 607.61523 L 958.89648 607.16602 L 957.91016 606.62891 L 957.91016 606.17969 L 956.92773 605.64453 L 956.92773 605.19727 L 955.95117 604.66406 L 955.95117 604.22266 L 954.97266 603.68945 L 954.97266 603.24219 L 954.00195 602.71289 L 954.00195 602.27148 L 953.03125 601.74219 L 953.03125 601.30078 L 952.0625 600.77148 L 952.0625 600.33203 L 951.09961 599.80664 L 951.09961 599.36914 L 950.13867 598.8457 L 950.13867 598.4082 L 949.17969 597.88477 L 949.17969 597.44922 L 948.22266 596.92773 L 948.22266 596.49219 L 947.27148 595.97266 L 947.27148 595.54102 L 946.32227 595.02344 L 946.32227 594.5918 L 945.37305 594.07422 L 945.37305 593.64258 L 944.42773 593.12695 L 944.42773 592.69727 L 943.48633 592.18359 L 943.48633 591.75781 L 942.55078 591.24805 L 942.55078 590.82031 L 941.61328 590.30859 L 941.61328 589.88281 L 940.67969 589.37305 L 940.67969 588.94922 L 939.75 588.44141 L 939.75 588.01953 L 938.82422 587.51367 L 938.82422 587.09375 L 937.89648 586.58789 L 937.89648 586.16602 L 936.97461 585.66406 L 936.97461 585.24414 L 936.05664 584.74414 L 936.05664 584.32617 L 935.14258 583.82812 L 935.14258 583.41211 L 934.22656 582.91211 L 934.22656 582.49609 L 933.31641 582 L 933.31641 581.58594 L 932.41016 581.0918 L 932.41016 580.67969 L 931.50586 580.18555 L 931.50586 579.77539 L 930.60352 579.2832 L 930.60352 578.87305 L 929.70703 578.38477 L 929.70703 577.97656 L 928.81055 577.48828 L 928.81055 577.08008 L 927.91602 576.5918 L 927.91602 576.18555 L 927.02734 575.70117 L 927.02734 575.29688 L 926.13867 574.8125 L 926.13867 574.4082 L 925.25391 573.92578 L 925.25391 573.52344 L 924.37109 573.04102 L 924.37109 572.64062 L 923.49414 572.16211 L 923.49414 571.76367 L 922.61719 571.28516 L 922.61719 570.88672 L 921.74414 570.41016 L 921.74414 570.01367 L 920.875 569.53906 L 920.875 569.14453 L 920.00586 568.66992 L 920.00586 568.27539 L 919.13867 567.80273 L 919.13867 567.4082 L 918.27734 566.9375 L 918.27734 566.54688 L 917.41992 566.08008 L 917.41992 565.68945 L 916.56641 565.22461 L 916.56641 564.83594 L 915.71094 564.36914 L 915.71094 563.98047 L 914.86133 563.51758 L 914.86133 563.13086 L 914.01367 562.66797 L 914.01367 562.2832 L 913.16797 561.82227 L 913.16797 561.4375 L 912.32422 560.97656 L 912.32422 560.59375 L 911.48633 560.13672 L 911.48633 559.75586 L 910.65039 559.30078 L 910.65039 558.91992 L 909.81836 558.4668 L 909.81836 558.08789 L 908.98828 557.63477 L 908.98828 557.25781 L 908.16016 556.80664 L 908.16016 556.42969 L 907.33594 555.98047 L 907.33594 555.60547 L 906.51172 555.15625 L 906.51172 554.78125 L 905.69531 554.33594 L 905.69531 553.96484 L 904.87891 553.51953 L 904.87891 553.14844 L 904.0625 552.70312 L 904.0625 552.33203 L 903.25391 551.89062 L 903.25391 551.52344 L 902.44531 551.08203 L 902.44531 550.71484 L 901.64062 550.27539 L 901.64062 549.91016 L 900.83984 549.47266 L 900.83984 549.10938 L 900.04102 548.67383 L 900.04102 548.31055 L 899.24414 547.875 L 899.24414 547.51367 L 898.45117 547.08203 L 898.45117 546.7207 L 897.66016 546.28906 L 897.66016 545.92969 L 896.87109 545.5 L 896.87109 545.14062 L 896.08789 544.71289 L 896.08789 544.35742 L 895.30664 543.93164 L 895.30664 543.57617 L 894.52734 543.15039 L 894.52734 542.79688 L 893.74805 542.37109 L 893.74805 542.01758 L 892.97852 541.59766 L 892.97852 541.24805 L 892.20703 540.82812 L 892.20703 540.47656 L 891.43945 540.05859 L 891.43945 539.70898 L 890.67188 539.29102 L 890.67188 538.94141 L 889.91211 538.52734 L 889.91211 538.18164 L 889.15234 537.76758 L 889.15234 537.42188 L 888.39648 537.00977 L 888.39648 536.66602 L 887.64062 536.25391 L 887.64062 535.91016 L 886.89258 535.50195 L 886.89258 535.16211 L 886.14453 534.75391 L 886.14453 534.41406 L 885.40039 534.00781 L 885.40039 533.66992 L 884.6543 533.26367 L 884.6543 532.92383 L 883.91797 532.52148 L 883.91797 532.1875 L 883.18164 531.78516 L 883.18164 531.45117 L 882.44727 531.05078 L 882.44727 530.7168 L 881.71484 530.31641 L 881.71484 529.98438 L 880.98828 529.58789 L 880.98828 529.25781 L 880.26367 528.86328 L 880.26367 528.5332 L 879.54102 528.13867 L 879.54102 527.81055 L 878.82031 527.41797 L 878.82031 527.08984 L 878.10547 526.69922 L 878.10547 526.375 L 877.39062 525.98438 L 877.39062 525.66016 L 876.67969 525.27148 L 876.67969 524.94922 L 875.97266 524.56445 L 875.97266 524.24219 L 875.26758 523.85742 L 875.26758 523.53711 L 874.56445 523.1543 L 874.56445 522.83398 L 873.86523 522.45312 L 873.86523 522.13477 L 873.16992 521.75586 L 873.16992 521.43945 L 872.47461 521.06055 L 872.47461 520.74414 L 871.78125 520.36523 L 871.78125 520.05078 L 871.09375 519.67578 L 871.09375 519.36328 L 870.41016 518.99023 L 870.41016 518.67969 L 869.73047 518.30859 L 869.73047 518 L 869.04883 517.62891 L 869.04883 517.31836 L 868.37305 516.94922 L 868.37305 516.64258 L 867.69922 516.27539 L 867.69922 515.9707 L 867.02734 515.60352 L 867.02734 515.29688 L 866.35938 514.93164 L 866.35938 514.62891 L 865.69336 514.26562 L 865.69336 513.96289 L 865.03125 513.60156 L 865.03125 513.30078 L 864.37109 512.94141 L 864.37109 512.64062 L 863.7168 512.2832 L 863.7168 511.98633 L 863.0625 511.62891 L 863.0625 511.33203 L 862.41211 510.97656 L 862.41211 510.68164 L 861.76172 510.32617 L 861.76172 510.03125 L 861.11719 509.67969 L 861.11719 509.38672 L 860.47461 509.03711 L 860.47461 508.74414 L 859.83398 508.39453 L 859.83398 508.10547 L 859.19922 507.75977 L 859.19922 507.46875 L 858.56445 507.12305 L 858.56445 506.83398 L 857.93359 506.49023 L 857.93359 506.20312 L 857.30664 505.86133 L 857.30664 505.57617 L 856.67969 505.23438 L 856.67969 504.94922 L 856.05859 504.61133 L 856.05859 504.32812 L 855.43945 503.99023 L 855.43945 503.70898 L 854.82031 503.37109 L 854.82031 503.08984 L 854.20703 502.75586 L 854.20703 502.47656 L 853.5957 502.14258 L 853.5957 501.86523 L 852.98633 501.5332 L 852.98633 501.25586 L 852.38086 500.92578 L 852.38086 500.65039 L 851.78125 500.32422 L 851.78125 500.05078 L 851.17969 499.72266 L 851.17969 499.44922 L 850.58203 499.12305 L 850.58203 498.85156 L 849.99023 498.5293 L 849.99023 498.25977 L 849.40039 497.9375 L 849.40039 497.66992 L 848.81055 497.34766 L 848.81055 497.08008 L 848.22461 496.75977 L 848.22461 496.49414 L 847.64258 496.17578 L 847.64258 495.91211 L 847.06055 495.59375 L 847.06055 495.33008 L 846.48633 495.01758 L 846.48633 494.75586 L 845.91211 494.44336 L 845.91211 494.18164 L 845.33984 493.86914 L 845.33984 493.60938 L 844.76953 493.29883 L 844.76953 493.03906 L 844.20703 492.73242 L 844.20703 492.47656 L 843.64258 492.16797 L 843.64258 491.91211 L 843.08398 491.60742 L 843.08398 491.35352 L 842.52539 491.04883 L 842.52539 490.79492 L 841.97266 490.49414 L 841.97266 490.24219 L 841.42188 489.94141 L 841.42188 489.69141 L 840.87305 489.39258 L 840.87305 489.14258 L 840.32422 488.84375 L 840.32422 488.59375 L 839.78516 488.29883 L 839.78516 488.05469 L 839.24414 487.75977 L 839.24414 487.51367 L 838.70703 487.2207 L 838.70703 486.97656 L 838.17383 486.68555 L 838.17383 486.44336 L 837.64062 486.15234 L 837.64062 485.91211 L 837.11328 485.625 L 837.11328 485.38281 L 836.58789 485.0957 L 836.58789 484.85742 L 836.06641 484.57227 L 836.06641 484.33594 L 835.54297 484.05078 L 835.54297 483.81445 L 835.02539 483.53125 L 835.02539 483.29492 L 834.51172 483.01562 L 834.51172 482.78125 L 834.00195 482.50391 L 834.00195 482.27148 L 833.49219 481.99414 L 833.49219 481.76172 L 832.98828 481.48633 L 832.98828 481.25781 L 832.48633 480.98438 L 832.48633 480.75586 L 831.98438 480.48242 L 831.98438 480.25391 L 831.48828 479.98242 L 831.48828 479.75781 L 830.99414 479.48828 L 830.99414 479.26367 L 830.50195 478.99609 L 830.50195 478.77148 L 830.01367 478.50586 L 830.01367 478.2832 L 829.52734 478.01758 L 829.52734 477.79688 L 829.04297 477.5332 L 829.04297 477.3125 L 828.5625 477.05078 L 828.5625 476.83203 L 828.08789 476.57227 L 828.08789 476.35742 L 827.61523 476.09961 L 827.61523 475.88477 L 827.14258 475.62695 L 827.14258 475.41211 L 826.67383 475.15625 L 826.67383 474.94336 L 826.20898 474.68945 L 826.20898 474.47852 L 825.74414 474.22461 L 825.74414 474.01367 L 825.2832 473.76172 L 825.2832 473.55273 L 824.82617 473.30273 L 824.82617 473.0957 L 824.37109 472.84766 L 824.37109 472.64062 L 823.92188 472.39648 L 823.92188 472.19141 L 823.47266 471.94727 L 823.47266 471.74219 L 823.02539 471.49805 L 823.02539 471.29492 L 822.58398 471.05469 L 822.58398 470.85352 L 822.14258 470.61328 L 822.14258 470.41211 L 821.70703 470.17383 L 821.70703 469.97656 L 821.27148 469.73828 L 821.27148 469.54297 L 820.83789 469.30664 L 820.83789 469.10742 L 820.41016 468.875 L 820.41016 468.67969 L 819.98438 468.44727 L 819.98438 468.25391 L 819.56055 468.02344 L 819.56055 467.83008 L 819.14062 467.60156 L 819.14062 467.41016 L 818.72461 467.18359 L 818.72461 466.99414 L 818.30859 466.76758 L 818.30859 466.57812 L 817.89648 466.35352 L 817.89648 466.16602 L 817.48828 465.94336 L 817.48828 465.75781 L 817.08398 465.53711 L 817.08398 465.35352 L 816.67969 465.13281 L 816.67969 464.94922 L 816.2793 464.73047 L 816.2793 464.54883 L 815.88281 464.33203 L 815.88281 464.15234 L 815.48633 463.93555 L 815.48633 463.75586 L 815.09766 463.54297 L 815.09766 463.36719 L 814.70703 463.1543 L 814.70703 462.97656 L 814.32227 462.76758 L 814.32227 462.5918 L 813.93555 462.38086 L 813.93555 462.20508 L 813.55859 462 L 813.55859 461.82812 L 813.17969 461.62109 L 813.17969 461.44922 L 812.80664 461.24609 L 812.80664 461.07617 L 812.43164 460.87109 L 812.43164 460.70117 L 812.06641 460.50195 L 812.06641 460.33594 L 811.69922 460.13477 L 811.69922 459.96875 L 811.33594 459.77148 L 811.33594 459.60547 L 810.97266 459.4082 L 810.97266 459.24219 L 810.61719 459.04883 L 810.61719 458.88672 L 810.26172 458.69336 L 810.26172 458.5332 L 809.91211 458.3418 L 809.91211 458.18164 L 809.5625 457.99023 L 809.5625 457.83398 L 809.21484 457.64453 L 809.21484 457.48633 L 808.87109 457.29883 L 808.87109 457.14062 L 808.53125 456.95508 L 808.53125 456.80078 L 808.19531 456.61719 L 808.19531 456.46484 L 807.85938 456.28125 L 807.85938 456.12891 L 807.52539 455.94727 L 807.52539 455.79688 L 807.19727 455.61719 L 807.19727 455.4668 L 806.87305 455.28906 L 806.87305 455.14258 L 806.54688 454.96484 L 806.54688 454.81641 L 806.23047 454.64453 L 806.23047 454.5 L 805.91211 454.32617 L 805.91211 454.18164 L 805.5957 454.00977 L 805.5957 453.86523 L 805.28516 453.69531 L 805.28516 453.55469 L 804.97461 453.38477 L 804.97461 453.24414 L 804.66992 453.07812 L 804.66992 452.93945 L 804.36719 452.77344 L 804.36719 452.63672 L 804.06445 452.4707 L 804.06445 452.33398 L 803.76562 452.17188 L 803.76562 452.03516 L 803.4707 451.875 L 803.4707 451.74023 L 803.17969 451.58203 L 803.17969 451.44922 L 802.89258 451.29297 L 802.89258 451.16211 L 802.60547 451.00586 L 802.60547 450.875 L 802.32227 450.7207 L 802.32227 450.5918 L 802.04297 450.43945 L 802.04297 450.3125 L 801.76172 450.1582 L 801.76172 450.03125 L 801.48633 449.88086 L 801.48633 449.75586 L 801.21484 449.60742 L 801.21484 449.48438 L 800.94531 449.33789 L 800.94531 449.21484 L 800.68164 449.07031 L 800.68164 448.95117 L 800.41797 448.80664 L 800.41797 448.6875 L 800.15625 448.54492 L 800.15625 448.42578 L 799.89844 448.28516 L 799.89844 448.16797 L 799.64258 448.0293 L 799.64258 447.91211 L 799.39258 447.77539 L 799.39258 447.66211 L 799.14258 447.52539 L 799.14258 447.41211 L 798.89453 447.27734 L 798.89453 447.16406 L 798.65234 447.03125 L 798.65234 446.92188 L 798.41016 446.78906 L 798.41016 446.67969 L 798.17188 446.54883 L 798.17188 446.44141 L 797.9375 446.31445 L 797.9375 446.20703 L 797.70703 446.08203 L 797.70703 445.97656 L 797.47656 445.85156 L 797.47656 445.74609 L 797.25 445.62305 L 797.25 445.51953 L 797.02734 445.39844 L 797.02734 445.29688 L 796.80469 445.17578 L 796.80469 445.07422 L 796.58789 444.95508 L 796.58789 444.85742 L 796.37305 444.74023 L 796.37305 444.64258 L 796.16211 444.52734 L 796.16211 444.43164 L 795.94922 444.31641 L 795.94922 444.21875 L 795.74609 444.10742 L 795.74609 444.01562 L 795.54102 443.9043 L 795.54102 443.81055 L 795.3418 443.70117 L 795.3418 443.61133 L 795.14062 443.50195 L 795.14062 443.41016 L 794.94727 443.30469 L 794.94727 443.2168 L 794.75586 443.11328 L 794.75586 443.02539 L 794.56641 442.92188 L 794.56641 442.83594 L 794.37695 442.73242 L 794.37695 442.64648 L 794.19531 442.54688 L 794.19531 442.46484 L 794.01367 442.36523 L 794.01367 442.2832 L 793.83594 442.18555 L 793.83594 442.10742 L 793.66016 442.01172 L 793.66016 441.92969 L 793.48828 441.83594 L 793.48828 441.75781 L 793.31836 441.66602 L 793.31836 441.58789 L 793.15234 441.49805 L 793.15234 441.42188 L 792.98633 441.33203 L 792.98633 441.25586 L 792.82812 441.16992 L 792.82812 441.09766 L 792.66992 441.01172 L 792.66992 440.93945 L 792.51367 440.85352 L 792.51367 440.7832 L 792.36328 440.70117 L 792.36328 440.63281 L 792.21094 440.54883 L 792.21094 440.48047 L 792.06445 440.40039 L 792.06445 440.33398 L 791.91992 440.25586 L 791.91992 440.18945 L 791.78125 440.11328 L 791.78125 440.05078 L 791.64062 439.97461 L 791.64062 439.91016 L 791.50391 439.83594 L 791.50391 439.77539 L 791.37305 439.70312 L 791.37305 439.64258 L 791.24414 439.57227 L 791.24414 439.51367 L 791.11523 439.44336 L 791.11523 439.38477 L 790.99414 439.31836 L 790.99414 439.26367 L 790.87305 439.19727 L 790.87305 439.14258 L 790.75195 439.07617 L 790.75195 439.02148 L 790.63867 438.95898 L 790.63867 438.9082 L 790.52539 438.8457 L 790.52539 438.79492 L 790.41602 438.73438 L 790.41602 438.68555 L 790.31055 438.62891 L 790.31055 438.58008 L 790.20508 438.52344 L 790.20508 438.47461 L 790.10742 438.42188 L 790.10742 438.37695 L 790.00781 438.32227 L 790.00781 438.27734 L 789.91016 438.22461 L 789.91016 438.17969 L 789.81836 438.12891 L 789.81836 438.08789 L 789.72852 438.03906 L 789.72852 437.99805 L 789.64062 437.94922 L 789.64062 437.91211 L 789.55859 437.86719 L 789.55859 437.82812 L 789.47461 437.7832 L 789.47461 437.74414 L 789.40039 437.70312 L 789.40039 437.66992 L 789.32422 437.62891 L 789.32422 437.59375 L 789.24805 437.55273 L 789.24805 437.51758 L 789.17969 437.48047 L 789.17969 437.44922 L 789.11328 437.41211 L 789.11328 437.38281 L 789.04883 437.34766 L 789.04883 437.31836 L 788.98828 437.28516 L 788.98828 437.25781 L 788.93164 437.22656 L 788.93164 437.20117 L 788.875 437.16992 L 788.875 437.14453 L 788.82227 437.11523 L 788.82227 437.0918 L 788.77148 437.06445 L 788.77148 437.04102 L 788.72266 437.01367 L 788.72266 436.99219 L 788.68164 436.9707 L 788.68164 436.95117 L 788.64062 436.92969 L 788.64062 436.91016 L 788.60156 436.88867 L 788.60156 436.87109 L 788.56445 436.85156 L 788.56445 436.83398 L 788.53125 436.81641 L 788.53125 436.80078 L 788.5 436.7832 L 788.5 436.76953 L 788.47461 436.75586 L 788.47461 436.74414 L 788.45117 436.73047 L 788.45117 436.7207 L 788.42773 436.70703 L 788.42773 436.69727 L 788.41016 436.6875 L 788.41016 436.67969 L 788.39453 436.67188 L 788.39453 436.66406 L 788.38281 436.6582 L 788.38281 436.65234 L 788.37109 436.64648 L 788.37109 436.64062 L 788.36328 436.63672 L 788.36328 436.63281 L 788.35938 436.63086 L 512.00195 285.88867 z "
       style="fill:url(#linearGradient18912);fill-opacity:1;stroke-width:25.1236"
       id="path16100" />
    <path
       style="stroke-width:6.64729"
       id="path2"
       d="M 55.699235,55.699235 H 215.2341 V 215.2341 H 55.699235 Z"
       fill="none" />
    <path
       style="fill:#ffffff;fill-opacity:1;stroke-width:6.64729"
       id="path4"
       d="m 88.935665,143.31046 v 26.58915 l 46.531005,25.39263 46.531,-25.39263 v -26.58915 l -46.531,25.39264 z m 46.531005,-67.669367 -73.120149,39.883717 73.120149,39.88371 59.82557,-32.63817 v 45.93275 h 13.29457 v -53.17829 z" />
    <path
       style="stroke-width:6.64729"
       fill="none"
       d="M 240.90757,240.90757 H 400.44243 V 400.44243 H 240.90757 Z"
       id="path1017" />
  </g>
</svg>
